<?xml version="1.0" encoding="UTF-8"?>
<svg xmlns="http://www.w3.org/2000/svg" xmlns:xlink="http://www.w3.org/1999/xlink" width="402.12" height="628.32" viewBox="-28.56 -599.76 402.12 628.32">
<defs>
<style type="text/css">
.l65d44 {stroke: #2B3D26; fill: #2B3D26; fill-opacity: 0.5;}
.l235d4 {stroke: #0067A5; fill: #0067A5; fill-opacity: 0.5;}
.l67d44 {stroke: #875692; fill: #875692; fill-opacity: 0.5;}
.l69d44 {stroke: #A1CAF1; fill: #A1CAF1; fill-opacity: 0.5;}
.l122d16 {stroke: #F6A600; fill: #F6A600; fill-opacity: 0.5;}
.l93d44 {stroke: #008856; fill: #008856; fill-opacity: 0.5;}
.l78d44 {stroke: #F6A600; fill: #F6A600; fill-opacity: 0.5;}
.l236d0 {stroke: #E25822; fill: #E25822; fill-opacity: 0.5;}
.l66d44 {stroke: #F3C300; fill: #F3C300; fill-opacity: 0.5;}
.l68d44 {stroke: #F38400; fill: #F38400; fill-opacity: 0.5;}
.l95d20 {stroke: #654522; fill: #654522; fill-opacity: 0.5;}
.l70d44 {stroke: #BE0032; fill: #BE0032; fill-opacity: 0.5;}
.l94d20 {stroke: #8DB600; fill: #8DB600; fill-opacity: 0.5;}
.l68d16 {stroke: #E25822; fill: #E25822; fill-opacity: 0.5;}
.l67d20 {stroke: #0067A5; fill: #0067A5; fill-opacity: 0.5;}
.l71d16 {stroke: #875692; fill: #875692; fill-opacity: 0.5;}
.l69d20 {stroke: #604E97; fill: #604E97; fill-opacity: 0.5;}
.l68d20 {stroke: #F99379; fill: #F99379; fill-opacity: 0.5;}
.l71d20 {stroke: #B3446C; fill: #B3446C; fill-opacity: 0.5;}
.l70d20 {stroke: #F6A600; fill: #F6A600; fill-opacity: 0.5;}
.l70d16 {stroke: #F3C300; fill: #F3C300; fill-opacity: 0.5;}
.l64d20 {stroke: #848482; fill: #848482; fill-opacity: 0.5;}
.l81d4 {stroke: #882D17; fill: #882D17; fill-opacity: 0.5;}
.l64d16 {stroke: #DCD300; fill: #DCD300; fill-opacity: 0.5;}
.l65d20 {stroke: #008856; fill: #008856; fill-opacity: 0.5;}
.l66d20 {stroke: #E68FAC; fill: #E68FAC; fill-opacity: 0.5;}
.l67d16 {stroke: #654522; fill: #654522; fill-opacity: 0.5;}
.l64t59 {stroke: none; fill: #B3446C;}
.l64t5 {stroke: none; fill: #604E97;}
.l67t5 {stroke: none; fill: #DCD300;}
.l68t5 {stroke: none; fill: #882D17;}
.l69t5 {stroke: none; fill: #8DB600;}
.l70t5 {stroke: none; fill: #654522;}
.l71t5 {stroke: none; fill: #E25822;}
.l83t44 {stroke: none; fill: #654522;}
</style>
<g id="sky130_fd_sc_hd__tapvpwrvgnd_1">
<polygon id="0x5c389f3d2680" class="l68d16" points="1.05,-0.9 3.6,-0.9 3.6,1 1.05,1"/>
<polygon id="0x5c389f3d26f0" class="l68d16" points="1.1,26.2 3.75,26.2 3.75,27.65 1.1,27.65"/>
<polygon id="0x5c389f478290" class="l94d20" points="0,1.9 4.6,1.9 4.6,9.75 0,9.75"/>
<polygon id="0x5c389f4df510" class="l94d20" points="0,25.3 4.6,25.3 4.6,29.1 0,29.1"/>
<polygon id="0x5c389f5e73c0" class="l93d44" points="0,-1.9 4.6,-1.9 4.6,1.9 0,1.9"/>
<polygon id="0x5c389f650220" class="l93d44" points="0,13.95 4.6,13.95 4.6,25.3 0,25.3"/>
<polygon id="0x5c389eaa38f0" class="l64d20" points="-1.9,13.05 6.5,13.05 6.5,29.1 -1.9,29.1"/>
<polygon id="0x5c389f222c40" class="l66d44" points="1.45,5.55 3.15,5.55 3.15,7.25 1.45,7.25"/>
<polygon id="0x5c389f25d630" class="l66d44" points="1.45,16.45 3.15,16.45 3.15,18.15 1.45,18.15"/>
<polygon id="0x5c389f246d10" class="l66d44" points="1.45,21.1 3.15,21.1 3.15,22.8 1.45,22.8"/>
<polygon id="0x5c389f2a8f30" class="l65d44" points="1.45,3.2 3.15,3.2 3.15,8.45 1.45,8.45"/>
<polygon id="0x5c389f230010" class="l65d44" points="1.45,15.25 3.15,15.25 3.15,24 1.45,24"/>
<polygon id="0x5c389f289460" class="l68d20" points="0,-2.4 4.6,-2.4 4.6,2.4 0,2.4"/>
<polygon id="0x5c389f2bdb50" class="l68d20" points="0,24.8 4.6,24.8 4.6,29.6 0,29.6"/>
<polygon id="0x5c389f2f1500" class="l67d44" points="1.45,-0.85 3.15,-0.85 3.15,0.85 1.45,0.85"/>
<polygon id="0x5c389f371030" class="l67d44" points="1.45,26.35 3.15,26.35 3.15,28.05 1.45,28.05"/>
<polygon id="0x5c389f3d9750" class="l67d20" points="0.85,0 3.75,0 3.75,8.1 0.85,8.1"/>
<polygon id="0x5c389f267420" class="l67d20" points="0.85,14.7 3.75,14.7 3.75,27.2 0.85,27.2"/>
<polygon id="0x5c389f29e0e0" class="l67d20" points="0,26.35 4.6,26.35 4.6,28.05 0,28.05"/>
<polygon id="0x5c389f47db80" class="l67d20" points="0,-0.85 4.6,-0.85 4.6,0.85 0,0.85"/>
<polygon id="0x5c389f4da440" class="l78d44" points="0,12.5 4.6,12.5 4.6,27.2 0,27.2"/>
<polygon id="0x5c389f540c80" class="l81d4" points="0,0 4.6,0 4.6,27.2 0,27.2"/>
<text id="0x5c389f53f890" class="l68t5" text-anchor="middle" dominant-baseline="central" transform="translate(2.3 27.2) scale(0.1) scale(1 -1)">VPWR</text>
<text id="0x5c389f5547c0" class="l68t5" text-anchor="middle" dominant-baseline="central" transform="translate(2.3 0) scale(0.1) scale(1 -1)">VGND</text>
<text id="0x5c389f590f30" class="l83t44" text-anchor="start" dominant-baseline="text-before-edge" transform="translate(0 0) rotate(90) scale(0.1) scale(1 -1)">tapvpwrvgnd_1</text>
</g>
<g id="sky130_fd_sc_hd__decap_8">
<polygon id="0x5c389f26cc80" class="l236d0" points="0,0 36.8,0 36.8,27.2 0,27.2"/>
<polygon id="0x5c389f282580" class="l68d16" points="1.45,26.35 3.15,26.35 3.15,28.05 1.45,28.05"/>
<polygon id="0x5c389f2a69e0" class="l68d16" points="1.45,-0.85 3.15,-0.85 3.15,0.85 1.45,0.85"/>
<polygon id="0x5c389f2a4750" class="l64d16" points="1.45,26.35 3.15,26.35 3.15,28.05 1.45,28.05"/>
<polygon id="0x5c389f293600" class="l122d16" points="1.45,-0.85 3.15,-0.85 3.15,0.85 1.45,0.85"/>
<polygon id="0x5c389f2e2020" class="l67d20" points="36.8,0.85 35.95,0.85 35.95,8.55 17.35,8.55 17.35,13.75 0.85,13.75 0.85,0.85 0,0.85 0,-0.85 36.8,-0.85"/>
<polygon id="0x5c389f2f4020" class="l67d20" points="36.8,28.05 0,28.05 0,26.35 0.85,26.35 0.85,15.45 19.05,15.45 19.05,10.25 35.95,10.25 35.95,26.35 36.8,26.35"/>
<polygon id="0x5c389f40b330" class="l81d4" points="0,0 36.8,0 36.8,27.2 0,27.2"/>
<polygon id="0x5c389f4184b0" class="l65d20" points="1.35,16.15 35.45,16.15 35.45,24.85 1.35,24.85"/>
<polygon id="0x5c389f491fc0" class="l65d20" points="1.35,2.35 35.45,2.35 35.45,7.85 1.35,7.85"/>
<polygon id="0x5c389f55f110" class="l78d44" points="0,12.5 36.8,12.5 36.8,27.2 0,27.2"/>
<polygon id="0x5c389f584520" class="l93d44" points="0,-1.9 36.8,-1.9 36.8,10.15 0,10.15"/>
<polygon id="0x5c389f582570" class="l64d20" points="-1.9,13.05 38.7,13.05 38.7,29.1 -1.9,29.1"/>
<polygon id="0x5c389f58fe00" class="l94d20" points="0,14.85 36.8,14.85 36.8,29.1 0,29.1"/>
<polygon id="0x5c389f671eb0" class="l67d44" points="1.45,26.35 3.15,26.35 3.15,28.05 1.45,28.05"/>
<polygon id="0x5c389f5128c0" class="l67d44" points="1.45,-0.85 3.15,-0.85 3.15,0.85 1.45,0.85"/>
<polygon id="0x5c389eb38600" class="l67d44" points="6.05,26.35 7.75,26.35 7.75,28.05 6.05,28.05"/>
<polygon id="0x5c389eb38670" class="l67d44" points="6.05,-0.85 7.75,-0.85 7.75,0.85 6.05,0.85"/>
<polygon id="0x5c389e93afb0" class="l67d44" points="10.65,26.35 12.35,26.35 12.35,28.05 10.65,28.05"/>
<polygon id="0x5c389e9888e0" class="l67d44" points="10.65,-0.85 12.35,-0.85 12.35,0.85 10.65,0.85"/>
<polygon id="0x5c389e712380" class="l67d44" points="15.25,26.35 16.95,26.35 16.95,28.05 15.25,28.05"/>
<polygon id="0x5c389e7123f0" class="l67d44" points="15.25,-0.85 16.95,-0.85 16.95,0.85 15.25,0.85"/>
<polygon id="0x5c389e9997c0" class="l67d44" points="19.85,26.35 21.55,26.35 21.55,28.05 19.85,28.05"/>
<polygon id="0x5c389e9b3920" class="l67d44" points="19.85,-0.85 21.55,-0.85 21.55,0.85 19.85,0.85"/>
<polygon id="0x5c389ea3a800" class="l67d44" points="24.45,26.35 26.15,26.35 26.15,28.05 24.45,28.05"/>
<polygon id="0x5c389ea3a870" class="l67d44" points="24.45,-0.85 26.15,-0.85 26.15,0.85 24.45,0.85"/>
<polygon id="0x5c389ea6e8b0" class="l67d44" points="29.05,26.35 30.75,26.35 30.75,28.05 29.05,28.05"/>
<polygon id="0x5c389eabfba0" class="l67d44" points="29.05,-0.85 30.75,-0.85 30.75,0.85 29.05,0.85"/>
<polygon id="0x5c389eae9200" class="l67d44" points="33.65,26.35 35.35,26.35 35.35,28.05 33.65,28.05"/>
<polygon id="0x5c389eae9270" class="l67d44" points="33.65,-0.85 35.35,-0.85 35.35,0.85 33.65,0.85"/>
<polygon id="0x5c389eb40bb0" class="l66d20" points="32.85,26.15 3.95,26.15 3.95,11.25 17.15,11.25 17.15,14.85 32.85,14.85"/>
<polygon id="0x5c389eb4b360" class="l66d20" points="32.85,12.75 19.25,12.75 19.25,9.15 3.95,9.15 3.95,1.05 32.85,1.05"/>
<polygon id="0x5c389eb8dff0" class="l66d44" points="1.75,22.55 3.45,22.55 3.45,24.25 1.75,24.25"/>
<polygon id="0x5c389ec16930" class="l66d44" points="1.75,17.45 3.45,17.45 3.45,19.15 1.75,19.15"/>
<polygon id="0x5c389ec58a40" class="l66d44" points="1.75,3.9 3.45,3.9 3.45,5.6 1.75,5.6"/>
<polygon id="0x5c389ec58ab0" class="l66d44" points="4.75,12.05 6.45,12.05 6.45,13.75 4.75,13.75"/>
<polygon id="0x5c389ec7e090" class="l66d44" points="9.7,12.05 11.4,12.05 11.4,13.75 9.7,13.75"/>
<polygon id="0x5c389ecee5d0" class="l66d44" points="14.65,12.05 16.35,12.05 16.35,13.75 14.65,13.75"/>
<polygon id="0x5c389e6feda0" class="l66d44" points="33.35,3.9 35.05,3.9 35.05,5.6 33.35,5.6"/>
<polygon id="0x5c389e6fee10" class="l66d44" points="20.05,10.25 21.75,10.25 21.75,11.95 20.05,11.95"/>
<polygon id="0x5c389ee82770" class="l66d44" points="25.2,10.25 26.9,10.25 26.9,11.95 25.2,11.95"/>
<polygon id="0x5c389eeaf0a0" class="l66d44" points="30.35,10.25 32.05,10.25 32.05,11.95 30.35,11.95"/>
<polygon id="0x5c389f06d880" class="l66d44" points="33.35,22.55 35.05,22.55 35.05,24.25 33.35,24.25"/>
<polygon id="0x5c389f06d8f0" class="l66d44" points="33.35,17.45 35.05,17.45 35.05,19.15 33.35,19.15"/>
<polygon id="0x5c389f0209b0" class="l95d20" points="36.8,13.45 17.35,13.45 17.35,14.75 0,14.75 0,9.75 19.05,9.75 19.05,9.25 36.8,9.25"/>
<polygon id="0x5c389f012f00" class="l68d20" points="0,29.6 0,24.8 36.8,24.8 36.8,29.6"/>
<polygon id="0x5c389f012f00" class="l68d20" points="0,2.4 0,-2.4 36.8,-2.4 36.8,2.4"/>
<text id="0x5c389f2f4090" class="l68t5" text-anchor="middle" dominant-baseline="central" transform="translate(2.3 27.2) scale(0.1) scale(1 -1)">VPWR</text>
<text id="0x5c389f3fe680" class="l68t5" text-anchor="middle" dominant-baseline="central" transform="translate(2.3 0) scale(0.1) scale(1 -1)">VGND</text>
<text id="0x5c389f488060" class="l64t5" text-anchor="middle" dominant-baseline="central" transform="translate(2.3 27.2) scale(0.1) scale(1 -1)">VPB</text>
<text id="0x5c389f489050" class="l64t59" text-anchor="middle" dominant-baseline="central" transform="translate(2.3 0) scale(0.1) scale(1 -1)">VNB</text>
<text id="0x5c389f08c5b0" class="l83t44" text-anchor="start" dominant-baseline="text-before-edge" transform="translate(0 0) rotate(90) scale(0.1) scale(1 -1)">decap_8</text>
</g>
<g id="sky130_ef_sc_hd__decap_12">
<polygon id="0x5c389f27d8a0" class="l236d0" points="0,0 55.2,0 55.2,27.2 0,27.2"/>
<polygon id="0x5c389f3994e0" class="l68d16" points="1.45,-0.85 3.15,-0.85 3.15,0.85 1.45,0.85"/>
<polygon id="0x5c389f32caa0" class="l68d16" points="1.45,26.35 3.15,26.35 3.15,28.05 1.45,28.05"/>
<polygon id="0x5c389f34aa80" class="l64d16" points="1.45,26.35 3.15,26.35 3.15,28.05 1.45,28.05"/>
<polygon id="0x5c389f411840" class="l122d16" points="1.45,-0.85 3.15,-0.85 3.15,0.85 1.45,0.85"/>
<polygon id="0x5c389f42a6f0" class="l65d20" points="1.35,16.15 53.85,16.15 53.85,24.85 1.35,24.85"/>
<polygon id="0x5c389f4a2770" class="l65d20" points="1.35,2.35 53.85,2.35 53.85,7.85 1.35,7.85"/>
<polygon id="0x5c389f4c60c0" class="l78d44" points="0,12.5 55.2,12.5 55.2,27.2 0,27.2"/>
<polygon id="0x5c389f240c20" class="l93d44" points="0,-1.9 55.2,-1.9 55.2,10.15 0,10.15"/>
<polygon id="0x5c389f4ea430" class="l64d20" points="-1.9,13.05 57.1,13.05 57.1,29.1 -1.9,29.1"/>
<polygon id="0x5c389f532d70" class="l94d20" points="0,14.85 55.2,14.85 55.2,29.1 0,29.1"/>
<polygon id="0x5c389f554b30" class="l81d4" points="0,0 55.2,0 55.2,27.2 0,27.2"/>
<polygon id="0x5c389f5a0590" class="l67d44" points="24.45,-0.85 26.15,-0.85 26.15,0.85 24.45,0.85"/>
<polygon id="0x5c389f69d1e0" class="l67d44" points="29.05,26.35 30.75,26.35 30.75,28.05 29.05,28.05"/>
<polygon id="0x5c389e5d14c0" class="l67d44" points="1.45,26.35 3.15,26.35 3.15,28.05 1.45,28.05"/>
<polygon id="0x5c389f1e98b0" class="l67d44" points="1.45,-0.85 3.15,-0.85 3.15,0.85 1.45,0.85"/>
<polygon id="0x5c389f6946f0" class="l67d44" points="6.05,26.35 7.75,26.35 7.75,28.05 6.05,28.05"/>
<polygon id="0x5c389f2f2dd0" class="l67d44" points="6.05,-0.85 7.75,-0.85 7.75,0.85 6.05,0.85"/>
<polygon id="0x5c389f565950" class="l67d44" points="10.65,26.35 12.35,26.35 12.35,28.05 10.65,28.05"/>
<polygon id="0x5c389f3aec50" class="l67d44" points="10.65,-0.85 12.35,-0.85 12.35,0.85 10.65,0.85"/>
<polygon id="0x5c389f3bd1d0" class="l67d44" points="15.25,26.35 16.95,26.35 16.95,28.05 15.25,28.05"/>
<polygon id="0x5c389f4abfb0" class="l67d44" points="15.25,-0.85 16.95,-0.85 16.95,0.85 15.25,0.85"/>
<polygon id="0x5c389f517ee0" class="l67d44" points="19.85,26.35 21.55,26.35 21.55,28.05 19.85,28.05"/>
<polygon id="0x5c389f5acc30" class="l67d44" points="19.85,-0.85 21.55,-0.85 21.55,0.85 19.85,0.85"/>
<polygon id="0x5c389f6984a0" class="l67d44" points="24.45,26.35 26.15,26.35 26.15,28.05 24.45,28.05"/>
<polygon id="0x5c389f25f760" class="l67d44" points="29.05,-0.85 30.75,-0.85 30.75,0.85 29.05,0.85"/>
<polygon id="0x5c389f22c5a0" class="l67d44" points="33.65,26.35 35.35,26.35 35.35,28.05 33.65,28.05"/>
<polygon id="0x5c389f1e3990" class="l67d44" points="33.65,-0.85 35.35,-0.85 35.35,0.85 33.65,0.85"/>
<polygon id="0x5c389f2ae600" class="l67d44" points="38.25,26.35 39.95,26.35 39.95,28.05 38.25,28.05"/>
<polygon id="0x5c389f2c30c0" class="l67d44" points="38.25,-0.85 39.95,-0.85 39.95,0.85 38.25,0.85"/>
<polygon id="0x5c389efe68a0" class="l67d44" points="42.85,26.35 44.55,26.35 44.55,28.05 42.85,28.05"/>
<polygon id="0x5c389f31f8f0" class="l67d44" points="42.85,-0.85 44.55,-0.85 44.55,0.85 42.85,0.85"/>
<polygon id="0x5c389f32da40" class="l67d44" points="47.45,26.35 49.15,26.35 49.15,28.05 47.45,28.05"/>
<polygon id="0x5c389f38da40" class="l67d44" points="47.45,-0.85 49.15,-0.85 49.15,0.85 47.45,0.85"/>
<polygon id="0x5c389f33d810" class="l67d44" points="52.05,26.35 53.75,26.35 53.75,28.05 52.05,28.05"/>
<polygon id="0x5c389f35d340" class="l67d44" points="52.05,-0.85 53.75,-0.85 53.75,0.85 52.05,0.85"/>
<polygon id="0x5c389f3592e0" class="l95d20" points="0,9.25 55.2,9.25 55.2,14.75 0,14.75"/>
<polygon id="0x5c389f3e0150" class="l66d20" points="51.25,26.15 3.95,26.15 3.95,11.25 26.45,11.25 26.45,14.85 51.25,14.85"/>
<polygon id="0x5c389f3ffbf0" class="l66d20" points="51.25,12.75 28.55,12.75 28.55,9.15 3.95,9.15 3.95,1.05 51.25,1.05"/>
<polygon id="0x5c389f42ef90" class="l67d20" points="16.7,6.3 20.1,6.3 20.1,14.6 16.7,14.6"/>
<polygon id="0x5c389f2a2d90" class="l67d20" points="0,26.35 55.2,26.35 55.2,28.05 0,28.05"/>
<polygon id="0x5c389f4a8ac0" class="l67d20" points="0.85,22 54.3,22 54.3,26.35 0.85,26.35"/>
<polygon id="0x5c389f51c020" class="l67d20" points="0,-0.85 55.2,-0.85 55.2,0.85 0,0.85"/>
<polygon id="0x5c389f528190" class="l67d20" points="34.9,9.5 38.4,9.5 38.4,22 34.9,22"/>
<polygon id="0x5c389f542550" class="l67d20" points="0.85,0.85 54.3,0.85 54.3,6.3 0.85,6.3"/>
<polygon id="0x5c389f5603f0" class="l66d44" points="1.75,22.55 3.45,22.55 3.45,24.25 1.75,24.25"/>
<polygon id="0x5c389f56dc30" class="l66d44" points="51.75,22.55 53.45,22.55 53.45,24.25 51.75,24.25"/>
<polygon id="0x5c389f5376e0" class="l66d44" points="51.75,3.9 53.45,3.9 53.45,5.6 51.75,5.6"/>
<polygon id="0x5c389f5b6fa0" class="l66d44" points="35.75,10.25 37.45,10.25 37.45,11.95 35.75,11.95"/>
<polygon id="0x5c389f5b57b0" class="l66d44" points="1.75,3.9 3.45,3.9 3.45,5.6 1.75,5.6"/>
<polygon id="0x5c389f5cac90" class="l66d44" points="17.55,12.05 19.25,12.05 19.25,13.75 17.55,13.75"/>
<polygon id="0x5c389f012f00" class="l68d20" points="0,29.6 0,24.8 55.2,24.8 55.2,29.6"/>
<polygon id="0x5c389f012f00" class="l68d20" points="0,2.4 0,-2.4 55.2,-2.4 55.2,2.4"/>
<text id="0x5c389f1e4b70" class="l68t5" text-anchor="middle" dominant-baseline="central" transform="translate(2.3 0) scale(0.1) scale(1 -1)">VGND</text>
<text id="0x5c389f25dd00" class="l68t5" text-anchor="middle" dominant-baseline="central" transform="translate(2.3 27.2) scale(0.1) scale(1 -1)">VPWR</text>
<text id="0x5c389f3211a0" class="l64t5" text-anchor="middle" dominant-baseline="central" transform="translate(2.3 27.2) scale(0.1) scale(1 -1)">VPB</text>
<text id="0x5c389f29fe30" class="l64t59" text-anchor="middle" dominant-baseline="central" transform="translate(2.3 0) scale(0.1) scale(1 -1)">VNB</text>
<text id="0x5c389f678270" class="l83t44" text-anchor="start" dominant-baseline="text-before-edge" transform="translate(0 0) rotate(90) scale(0.1) scale(1 -1)">decap_12</text>
</g>
<g id="sky130_fd_sc_hd__fill_2">
<polygon id="0x5c389ebb50a0" class="l122d16" points="1.55,-0.5 3.15,-0.5 3.15,0.6 1.55,0.6"/>
<polygon id="0x5c389ebb5110" class="l64d16" points="1.4,26.75 3.1,26.75 3.1,27.65 1.4,27.65"/>
<polygon id="0x5c389ec2c5b0" class="l68d16" points="1,-0.7 3.65,-0.7 3.65,0.9 1,0.9"/>
<polygon id="0x5c389ed00710" class="l68d16" points="1.05,26.5 3.65,26.5 3.65,28.05 1.05,28.05"/>
<polygon id="0x5c389edadc60" class="l78d44" points="0,12.5 9.2,12.5 9.2,27.2 0,27.2"/>
<polygon id="0x5c389ee3af00" class="l93d44" points="0,-1.9 9.2,-1.9 9.2,10.15 0,10.15"/>
<polygon id="0x5c389ee3afd0" class="l64d20" points="-1.9,13.05 11.1,13.05 11.1,29.1 -1.9,29.1"/>
<polygon id="0x5c389ef21700" class="l94d20" points="0,13.55 9.2,13.55 9.2,29.1 0,29.1"/>
<polygon id="0x5c389e9fcee0" class="l81d4" points="0,0 9.2,0 9.2,27.2 0,27.2"/>
<polygon id="0x5c389f0f0000" class="l67d44" points="1.45,26.35 3.15,26.35 3.15,28.05 1.45,28.05"/>
<polygon id="0x5c389f0f00d0" class="l67d44" points="1.45,-0.85 3.15,-0.85 3.15,0.85 1.45,0.85"/>
<polygon id="0x5c389f13deb0" class="l67d44" points="6.05,-0.85 7.75,-0.85 7.75,0.85 6.05,0.85"/>
<polygon id="0x5c389f2ca9c0" class="l67d44" points="6.05,26.35 7.75,26.35 7.75,28.05 6.05,28.05"/>
<polygon id="0x5c389f012f00" class="l67d20" points="0,0.85 0,-0.85 9.2,-0.85 9.2,0.85"/>
<polygon id="0x5c389f012f00" class="l67d20" points="0,28.05 0,26.35 9.2,26.35 9.2,28.05"/>
<polygon id="0x5c389f012f00" class="l68d20" points="0,29.6 0,24.8 9.2,24.8 9.2,29.6"/>
<polygon id="0x5c389f012f00" class="l68d20" points="0,2.4 0,-2.4 9.2,-2.4 9.2,2.4"/>
<text id="0x5c389ed007e0" class="l68t5" text-anchor="middle" dominant-baseline="central" transform="translate(2.3 0) scale(0.1) scale(1 -1)">VGND</text>
<text id="0x5c389edadbd0" class="l68t5" text-anchor="middle" dominant-baseline="central" transform="translate(2.3 27.2) scale(0.1) scale(1 -1)">VPWR</text>
<text id="0x5c389f2caa90" class="l64t5" text-anchor="middle" dominant-baseline="central" transform="translate(2.3 27.2) scale(0.1) scale(1 -1)">VPB</text>
<text id="0x5c389f321fa0" class="l64t59" text-anchor="middle" dominant-baseline="central" transform="translate(2.3 0) scale(0.1) scale(1 -1)">VNB</text>
<text id="0x5c389f322030" class="l83t44" text-anchor="start" dominant-baseline="text-before-edge" transform="translate(0 0) rotate(90) scale(0.1) scale(1 -1)">fill_2</text>
</g>
<g id="sky130_fd_sc_hd__decap_6">
<polygon id="0x5c389f698ac0" class="l236d0" points="0,0 27.6,0 27.6,27.2 0,27.2"/>
<polygon id="0x5c389f698b30" class="l68d16" points="1.45,26.35 3.15,26.35 3.15,28.05 1.45,28.05"/>
<polygon id="0x5c389f4c9e70" class="l68d16" points="1.45,-0.85 3.15,-0.85 3.15,0.85 1.45,0.85"/>
<polygon id="0x5c389f032e00" class="l64d16" points="1.45,26.35 3.15,26.35 3.15,28.05 1.45,28.05"/>
<polygon id="0x5c389f537100" class="l122d16" points="1.45,-0.85 3.15,-0.85 3.15,0.85 1.45,0.85"/>
<polygon id="0x5c389f5b79d0" class="l65d20" points="1.35,16.15 26.25,16.15 26.25,24.85 1.35,24.85"/>
<polygon id="0x5c389f68eb00" class="l65d20" points="1.35,2.35 26.25,2.35 26.25,7.85 1.35,7.85"/>
<polygon id="0x5c389f033a20" class="l81d4" points="0,0 27.6,0 27.6,27.2 0,27.2"/>
<polygon id="0x5c389ea96ba0" class="l78d44" points="0,12.5 27.6,12.5 27.6,27.2 0,27.2"/>
<polygon id="0x5c389ea953a0" class="l93d44" points="0,-1.9 27.6,-1.9 27.6,10.15 0,10.15"/>
<polygon id="0x5c389f48dec0" class="l64d20" points="-1.9,13.05 29.5,13.05 29.5,29.1 -1.9,29.1"/>
<polygon id="0x5c389f32f200" class="l94d20" points="0,14.85 27.6,14.85 27.6,29.1 0,29.1"/>
<polygon id="0x5c389f301e70" class="l67d44" points="1.45,26.35 3.15,26.35 3.15,28.05 1.45,28.05"/>
<polygon id="0x5c389f3232c0" class="l67d44" points="1.45,-0.85 3.15,-0.85 3.15,0.85 1.45,0.85"/>
<polygon id="0x5c389f7be2b0" class="l67d44" points="6.05,26.35 7.75,26.35 7.75,28.05 6.05,28.05"/>
<polygon id="0x5c389eb266f0" class="l67d44" points="6.05,-0.85 7.75,-0.85 7.75,0.85 6.05,0.85"/>
<polygon id="0x5c389eb293c0" class="l67d44" points="10.65,26.35 12.35,26.35 12.35,28.05 10.65,28.05"/>
<polygon id="0x5c389eaa8e50" class="l67d44" points="10.65,-0.85 12.35,-0.85 12.35,0.85 10.65,0.85"/>
<polygon id="0x5c389ebc9220" class="l67d44" points="15.25,26.35 16.95,26.35 16.95,28.05 15.25,28.05"/>
<polygon id="0x5c389ec218a0" class="l67d44" points="15.25,-0.85 16.95,-0.85 16.95,0.85 15.25,0.85"/>
<polygon id="0x5c389ec249c0" class="l67d44" points="19.85,26.35 21.55,26.35 21.55,28.05 19.85,28.05"/>
<polygon id="0x5c389ec72850" class="l67d44" points="19.85,-0.85 21.55,-0.85 21.55,0.85 19.85,0.85"/>
<polygon id="0x5c389ebfc6a0" class="l67d44" points="24.45,26.35 26.15,26.35 26.15,28.05 24.45,28.05"/>
<polygon id="0x5c389ec8edb0" class="l67d44" points="24.45,-0.85 26.15,-0.85 26.15,0.85 24.45,0.85"/>
<polygon id="0x5c389ec2e430" class="l66d20" points="23.65,26.15 3.95,26.15 3.95,11.25 12.75,11.25 12.75,14.85 23.65,14.85"/>
<polygon id="0x5c389ec2e4a0" class="l66d20" points="23.65,12.75 14.85,12.75 14.85,9.15 3.95,9.15 3.95,1.05 23.65,1.05"/>
<polygon id="0x5c389eca2500" class="l67d20" points="27.6,0.85 26.75,0.85 26.75,8.55 12.95,8.55 12.95,13.75 0.85,13.75 0.85,0.85 0,0.85 0,-0.85 27.6,-0.85"/>
<polygon id="0x5c389eca2570" class="l67d20" points="27.6,28.05 0,28.05 0,26.35 0.85,26.35 0.85,15.45 14.65,15.45 14.65,10.25 26.75,10.25 26.75,26.35 27.6,26.35"/>
<polygon id="0x5c389ec9aae0" class="l95d20" points="27.6,13.45 12.95,13.45 12.95,14.75 0,14.75 0,9.75 14.65,9.75 14.65,9.25 27.6,9.25"/>
<polygon id="0x5c389ec9ab50" class="l66d44" points="1.75,22.55 3.45,22.55 3.45,24.25 1.75,24.25"/>
<polygon id="0x5c389edacf20" class="l66d44" points="24.15,3.9 25.85,3.9 25.85,5.6 24.15,5.6"/>
<polygon id="0x5c389ee25ec0" class="l66d44" points="24.15,22.55 25.85,22.55 25.85,24.25 24.15,24.25"/>
<polygon id="0x5c389f01c910" class="l66d44" points="24.15,17.45 25.85,17.45 25.85,19.15 24.15,19.15"/>
<polygon id="0x5c389efaf430" class="l66d44" points="1.75,17.45 3.45,17.45 3.45,19.15 1.75,19.15"/>
<polygon id="0x5c389f029f70" class="l66d44" points="1.75,3.9 3.45,3.9 3.45,5.6 1.75,5.6"/>
<polygon id="0x5c389f19d960" class="l66d44" points="4.75,12.05 6.45,12.05 6.45,13.75 4.75,13.75"/>
<polygon id="0x5c389eead4d0" class="l66d44" points="10.25,12.05 11.95,12.05 11.95,13.75 10.25,13.75"/>
<polygon id="0x5c389f1f10a0" class="l66d44" points="15.65,10.25 17.35,10.25 17.35,11.95 15.65,11.95"/>
<polygon id="0x5c389f20a2e0" class="l66d44" points="21.15,10.25 22.85,10.25 22.85,11.95 21.15,11.95"/>
<polygon id="0x5c389f012f00" class="l68d20" points="0,29.6 0,24.8 27.6,24.8 27.6,29.6"/>
<polygon id="0x5c389f012f00" class="l68d20" points="0,2.4 0,-2.4 27.6,-2.4 27.6,2.4"/>
<text id="0x5c389f033990" class="l68t5" text-anchor="middle" dominant-baseline="central" transform="translate(2.3 27.2) scale(0.1) scale(1 -1)">VPWR</text>
<text id="0x5c389ea96b10" class="l68t5" text-anchor="middle" dominant-baseline="central" transform="translate(2.3 0) scale(0.1) scale(1 -1)">VGND</text>
<text id="0x5c389f48de30" class="l64t5" text-anchor="middle" dominant-baseline="central" transform="translate(2.3 27.2) scale(0.1) scale(1 -1)">VPB</text>
<text id="0x5c389f3917c0" class="l64t59" text-anchor="middle" dominant-baseline="central" transform="translate(2.3 0) scale(0.1) scale(1 -1)">VNB</text>
<text id="0x5c389f207cd0" class="l83t44" text-anchor="start" dominant-baseline="text-before-edge" transform="translate(0 0) rotate(90) scale(0.1) scale(1 -1)">decap_6</text>
</g>
<g id="sky130_fd_sc_hd__decap_3">
<polygon id="0x5c389f680450" class="l236d0" points="0,0 13.8,0 13.8,27.2 0,27.2"/>
<polygon id="0x5c389f7b9410" class="l68d16" points="1.45,26.35 3.15,26.35 3.15,28.05 1.45,28.05"/>
<polygon id="0x5c389f225640" class="l68d16" points="1.45,-0.85 3.15,-0.85 3.15,0.85 1.45,0.85"/>
<polygon id="0x5c389f27fc80" class="l64d16" points="1.45,26.35 3.15,26.35 3.15,28.05 1.45,28.05"/>
<polygon id="0x5c389f297bc0" class="l122d16" points="1.45,-0.85 3.15,-0.85 3.15,0.85 1.45,0.85"/>
<polygon id="0x5c389f2c2730" class="l65d20" points="1.35,2.35 12.45,2.35 12.45,7.85 1.35,7.85"/>
<polygon id="0x5c389f23e6c0" class="l65d20" points="1.35,16.15 12.45,16.15 12.45,24.85 1.35,24.85"/>
<polygon id="0x5c389f5c1c10" class="l78d44" points="0,12.5 13.8,12.5 13.8,27.2 0,27.2"/>
<polygon id="0x5c389f68c8c0" class="l64d20" points="-1.9,13.05 15.7,13.05 15.7,29.1 -1.9,29.1"/>
<polygon id="0x5c389f4c3640" class="l94d20" points="0,14.85 13.8,14.85 13.8,29.1 0,29.1"/>
<polygon id="0x5c389f4d34a0" class="l67d44" points="10.65,-0.85 12.35,-0.85 12.35,0.85 10.65,0.85"/>
<polygon id="0x5c389f1c7730" class="l67d44" points="10.65,26.35 12.35,26.35 12.35,28.05 10.65,28.05"/>
<polygon id="0x5c389f113ba0" class="l67d44" points="6.05,-0.85 7.75,-0.85 7.75,0.85 6.05,0.85"/>
<polygon id="0x5c389ebcf8c0" class="l67d44" points="6.05,26.35 7.75,26.35 7.75,28.05 6.05,28.05"/>
<polygon id="0x5c389ea93600" class="l67d44" points="1.45,-0.85 3.15,-0.85 3.15,0.85 1.45,0.85"/>
<polygon id="0x5c389ed9ed40" class="l67d44" points="1.45,26.35 3.15,26.35 3.15,28.05 1.45,28.05"/>
<polygon id="0x5c389f11c090" class="l81d4" points="0,0 13.8,0 13.8,27.2 0,27.2"/>
<polygon id="0x5c389f504c20" class="l93d44" points="0,-1.9 13.8,-1.9 13.8,10.15 0,10.15"/>
<polygon id="0x5c389f01fb50" class="l95d20" points="13.8,13.45 6.05,13.45 6.05,14.75 0,14.75 0,9.75 7.75,9.75 7.75,9.05 13.8,9.05"/>
<polygon id="0x5c389ef70540" class="l67d20" points="13.8,28.05 0,28.05 0,26.35 0.85,26.35 0.85,15.45 7.75,15.45 7.75,10.05 12.95,10.05 12.95,26.35 13.8,26.35"/>
<polygon id="0x5c389ef54920" class="l67d20" points="13.8,0.85 12.95,0.85 12.95,8.35 6.05,8.35 6.05,13.75 0.85,13.75 0.85,0.85 0,0.85 0,-0.85 13.8,-0.85"/>
<polygon id="0x5c389ef1e170" class="l66d20" points="11.25,12.55 7.95,12.55 7.95,9.15 3.95,9.15 3.95,1.05 9.85,1.05 9.85,9.25 11.25,9.25"/>
<polygon id="0x5c389f1fa2c0" class="l66d20" points="9.85,26.15 3.95,26.15 3.95,14.55 2.55,14.55 2.55,11.25 5.85,11.25 5.85,14.65 9.85,14.65"/>
<polygon id="0x5c389f4a7a60" class="l66d44" points="10.35,4 12.05,4 12.05,5.7 10.35,5.7"/>
<polygon id="0x5c389f69d880" class="l66d44" points="10.35,17.8 12.05,17.8 12.05,19.5 10.35,19.5"/>
<polygon id="0x5c389f7f1d00" class="l66d44" points="10.35,22.55 12.05,22.55 12.05,24.25 10.35,24.25"/>
<polygon id="0x5c389f451ad0" class="l66d44" points="8.75,10.05 10.45,10.05 10.45,11.75 8.75,11.75"/>
<polygon id="0x5c389ec3e860" class="l66d44" points="3.35,12.05 5.05,12.05 5.05,13.75 3.35,13.75"/>
<polygon id="0x5c389ec59f60" class="l66d44" points="1.75,4 3.45,4 3.45,5.7 1.75,5.7"/>
<polygon id="0x5c389ec9e160" class="l66d44" points="1.75,17.8 3.45,17.8 3.45,19.5 1.75,19.5"/>
<polygon id="0x5c389edc5100" class="l66d44" points="1.75,22.55 3.45,22.55 3.45,24.25 1.75,24.25"/>
<polygon id="0x5c389f012f00" class="l68d20" points="0,29.6 0,24.8 13.8,24.8 13.8,29.6"/>
<polygon id="0x5c389f012f00" class="l68d20" points="0,2.4 0,-2.4 13.8,-2.4 13.8,2.4"/>
<text id="0x5c389f35d910" class="l68t5" text-anchor="middle" dominant-baseline="central" transform="translate(2.3 27.2) scale(0.1) scale(1 -1)">VPWR</text>
<text id="0x5c389f3ef570" class="l68t5" text-anchor="middle" dominant-baseline="central" transform="translate(2.3 0) scale(0.1) scale(1 -1)">VGND</text>
<text id="0x5c389f4e1bb0" class="l64t5" text-anchor="middle" dominant-baseline="central" transform="translate(2.3 27.2) scale(0.1) scale(1 -1)">VPB</text>
<text id="0x5c389f5319f0" class="l64t59" text-anchor="middle" dominant-baseline="central" transform="translate(2.3 0) scale(0.1) scale(1 -1)">VNB</text>
<text id="0x5c389edb3670" class="l83t44" text-anchor="start" dominant-baseline="text-before-edge" transform="translate(0 0) rotate(90) scale(0.1) scale(1 -1)">decap_3</text>
</g>
<g id="sky130_fd_sc_hd__clkbuf_4">
<polygon id="0x5c389f5d11a0" class="l236d0" points="0,0 27.6,0 27.6,27.2 0,27.2"/>
<polygon id="0x5c389f7bafe0" class="l68d16" points="1.45,-0.85 3.15,-0.85 3.15,0.85 1.45,0.85"/>
<polygon id="0x5c389f7bb0b0" class="l68d16" points="1.45,26.35 3.15,26.35 3.15,28.05 1.45,28.05"/>
<polygon id="0x5c389e5d0890" class="l64d16" points="1.45,26.35 3.15,26.35 3.15,28.05 1.45,28.05"/>
<polygon id="0x5c389ea94ca0" class="l122d16" points="1.45,-0.85 3.15,-0.85 3.15,0.85 1.45,0.85"/>
<polygon id="0x5c389eaa31c0" class="l67d44" points="24.45,-0.85 26.15,-0.85 26.15,0.85 24.45,0.85"/>
<polygon id="0x5c389eb43d80" class="l67d44" points="24.45,26.35 26.15,26.35 26.15,28.05 24.45,28.05"/>
<polygon id="0x5c389eb43e50" class="l67d44" points="19.85,-0.85 21.55,-0.85 21.55,0.85 19.85,0.85"/>
<polygon id="0x5c389ebb7230" class="l67d44" points="19.85,26.35 21.55,26.35 21.55,28.05 19.85,28.05"/>
<polygon id="0x5c389ebb72a0" class="l67d44" points="15.25,-0.85 16.95,-0.85 16.95,0.85 15.25,0.85"/>
<polygon id="0x5c389ebd2640" class="l67d44" points="15.25,26.35 16.95,26.35 16.95,28.05 15.25,28.05"/>
<polygon id="0x5c389ebd2710" class="l67d44" points="10.65,-0.85 12.35,-0.85 12.35,0.85 10.65,0.85"/>
<polygon id="0x5c389e75acd0" class="l67d44" points="10.65,26.35 12.35,26.35 12.35,28.05 10.65,28.05"/>
<polygon id="0x5c389ec3b170" class="l67d44" points="6.05,-0.85 7.75,-0.85 7.75,0.85 6.05,0.85"/>
<polygon id="0x5c389ec3b240" class="l67d44" points="6.05,26.35 7.75,26.35 7.75,28.05 6.05,28.05"/>
<polygon id="0x5c389ec47ac0" class="l67d44" points="1.45,-0.85 3.15,-0.85 3.15,0.85 1.45,0.85"/>
<polygon id="0x5c389eca3c60" class="l67d44" points="1.45,26.35 3.15,26.35 3.15,28.05 1.45,28.05"/>
<polygon id="0x5c389eca3cd0" class="l94d20" points="0,13.55 27.6,13.55 27.6,29.1 0,29.1"/>
<polygon id="0x5c389edc68c0" class="l64d20" points="-1.9,13.05 29.5,13.05 29.5,29.1 -1.9,29.1"/>
<polygon id="0x5c389edc6990" class="l93d44" points="0,-1.9 27.6,-1.9 27.6,10.15 0,10.15"/>
<polygon id="0x5c389eea6f50" class="l78d44" points="0,12.5 27.6,12.5 27.6,27.2 0,27.2"/>
<polygon id="0x5c389ef55f20" class="l95d20" points="0,9.75 27.6,9.75 27.6,13.45 0,13.45"/>
<polygon id="0x5c389ef55ff0" class="l81d4" points="0,0 27.6,0 27.6,27.2 0,27.2"/>
<polygon id="0x5c389efa0ff0" class="l67d20" points="4.25,7.55 7.75,7.55 7.75,13.25 4.25,13.25"/>
<polygon id="0x5c389f021b40" class="l67d20" points="27.6,0.85 26.15,0.85 26.15,5.65 23.35,5.65 23.35,0.85 17.3,0.85 17.3,5.65 14.75,5.65 14.75,0.85 8.3,0.85 8.3,5.65 5.55,5.65 5.55,0.85 0,0.85 0,-0.85 27.6,-0.85"/>
<polygon id="0x5c389f021bb0" class="l67d20" points="26.6,15.85 21.65,15.85 21.65,24.65 19.05,24.65 19.05,20.05 13.05,20.05 13.05,24.65 10.45,24.65 10.45,18.35 19.05,18.35 19.05,14.15 22.55,14.15 22.55,9.05 10.1,9.05 10.1,3.45 13.05,3.45 13.05,7.35 19.05,7.35 19.05,3.45 21.65,3.45 21.65,7.35 26.6,7.35"/>
<polygon id="0x5c389f021c20" class="l67d20" points="20.85,12.45 11.15,12.45 11.15,16.65 3.95,16.65 3.95,24.65 0.85,24.65 0.85,2.55 3.85,2.55 3.85,5.85 2.55,5.85 2.55,14.95 9.45,14.95 9.45,10.75 20.85,10.75"/>
<polygon id="0x5c389f024000" class="l67d20" points="27.6,28.05 0,28.05 0,26.35 5.65,26.35 5.65,18.35 8.75,18.35 8.75,26.35 14.75,26.35 14.75,21.75 17.3,21.75 17.3,26.35 23.35,26.35 23.35,17.65 26.2,17.65 26.2,26.35 27.6,26.35"/>
<polygon id="0x5c389f024070" class="l66d44" points="15.2,3.15 16.9,3.15 16.9,4.85 15.2,4.85"/>
<polygon id="0x5c389f17fff0" class="l66d44" points="18.35,10.75 20.05,10.75 20.05,12.45 18.35,12.45"/>
<polygon id="0x5c389f1800c0" class="l66d44" points="19.45,18.75 21.15,18.75 21.15,20.45 19.45,20.45"/>
<polygon id="0x5c389f22ae80" class="l66d44" points="6.05,19.15 7.75,19.15 7.75,20.85 6.05,20.85"/>
<polygon id="0x5c389f2c0b40" class="l66d44" points="19.45,15.35 21.15,15.35 21.15,17.05 19.45,17.05"/>
<polygon id="0x5c389f2c0c10" class="l66d44" points="1.75,22.15 3.45,22.15 3.45,23.85 1.75,23.85"/>
<polygon id="0x5c389f2d6230" class="l66d44" points="4.25,10.75 5.95,10.75 5.95,12.45 4.25,12.45"/>
<polygon id="0x5c389f311570" class="l66d44" points="1.75,16.05 3.45,16.05 3.45,17.75 1.75,17.75"/>
<polygon id="0x5c389f311640" class="l66d44" points="1.75,3.35 3.45,3.35 3.45,5.05 1.75,5.05"/>
<polygon id="0x5c389f3772f0" class="l66d44" points="6.05,22.55 7.75,22.55 7.75,24.25 6.05,24.25"/>
<polygon id="0x5c389f49fb60" class="l66d44" points="23.75,18.45 25.45,18.45 25.45,20.15 23.75,20.15"/>
<polygon id="0x5c389f49fc30" class="l66d44" points="6.05,3.15 7.75,3.15 7.75,4.85 6.05,4.85"/>
<polygon id="0x5c389f484e30" class="l66d44" points="10.85,20.8 12.55,20.8 12.55,22.5 10.85,22.5"/>
<polygon id="0x5c389e53d2d0" class="l66d44" points="10.9,4.25 12.6,4.25 12.6,5.95 10.9,5.95"/>
<polygon id="0x5c389e53d3a0" class="l66d44" points="11.55,10.75 13.25,10.75 13.25,12.45 11.55,12.45"/>
<polygon id="0x5c389f4f8b90" class="l66d44" points="14.95,10.75 16.65,10.75 16.65,12.45 14.95,12.45"/>
<polygon id="0x5c389f541c60" class="l66d44" points="15.15,22.55 16.85,22.55 16.85,24.25 15.15,24.25"/>
<polygon id="0x5c389f541d30" class="l66d44" points="19.45,22.15 21.15,22.15 21.15,23.85 19.45,23.85"/>
<polygon id="0x5c389f562f80" class="l66d44" points="19.5,4.25 21.2,4.25 21.2,5.95 19.5,5.95"/>
<polygon id="0x5c389f585260" class="l66d44" points="23.75,21.85 25.45,21.85 25.45,23.55 23.75,23.55"/>
<polygon id="0x5c389f585330" class="l66d44" points="23.8,3.15 25.5,3.15 25.5,4.85 23.8,4.85"/>
<polygon id="0x5c389f5985f0" class="l66d20" points="23.25,11.85 23.2,11.85 23.2,26.15 21.7,26.15 21.7,12.95 18.9,12.95 18.9,26.15 17.4,26.15 17.4,12.95 14.6,12.95 14.6,26.15 13.1,26.15 13.1,12.95 10.3,12.95 10.3,26.15 8.8,26.15 8.8,10.5 8.85,10.5 8.85,1.05 10.35,1.05 10.35,10.2 13.15,10.2 13.15,1.05 14.65,1.05 14.65,10.2 17.45,10.2 17.45,1.05 18.95,1.05 18.95,10.2 21.75,10.2 21.75,1.05 23.25,1.05"/>
<polygon id="0x5c389f598660" class="l66d20" points="6.45,13.25 5.5,13.25 5.5,26.15 4,26.15 4,13.25 3.45,13.25 3.45,9.95 4,9.95 4,1.05 5.5,1.05 5.5,9.95 6.45,9.95"/>
<polygon id="0x5c389f670030" class="l65d20" points="1.35,2.35 26.15,2.35 26.15,6.55 1.35,6.55"/>
<polygon id="0x5c389f670100" class="l65d20" points="1.35,14.85 26.2,14.85 26.2,24.85 1.35,24.85"/>
<polygon id="0x5c389f4687e0" class="l67d16" points="6.05,11.05 7.75,11.05 7.75,12.75 6.05,12.75"/>
<polygon id="0x5c389eca9ce0" class="l67d16" points="6.05,7.65 7.75,7.65 7.75,9.35 6.05,9.35"/>
<polygon id="0x5c389eca9db0" class="l67d16" points="19.85,14.45 21.55,14.45 21.55,16.15 19.85,16.15"/>
<polygon id="0x5c389e7e7200" class="l67d16" points="24.45,11.05 26.15,11.05 26.15,12.75 24.45,12.75"/>
<polygon id="0x5c389e86cbe0" class="l67d16" points="24.45,7.65 26.15,7.65 26.15,9.35 24.45,9.35"/>
<polygon id="0x5c389f012f00" class="l68d20" points="0,2.4 0,-2.4 27.6,-2.4 27.6,2.4"/>
<polygon id="0x5c389f012f00" class="l68d20" points="0,29.6 0,24.8 27.6,24.8 27.6,29.6"/>
<text id="0x5c389ea94930" class="l67t5" text-anchor="middle" dominant-baseline="central" transform="translate(20.7 15.3) scale(0.1) scale(1 -1)">X</text>
<text id="0x5c389ea949c0" class="l67t5" text-anchor="middle" dominant-baseline="central" transform="translate(6.9 8.5) scale(0.1) scale(1 -1)">A</text>
<text id="0x5c389eaa3500" class="l67t5" text-anchor="middle" dominant-baseline="central" transform="translate(25.3 8.5) scale(0.1) scale(1 -1)">X</text>
<text id="0x5c389eaa3590" class="l67t5" text-anchor="middle" dominant-baseline="central" transform="translate(6.9 11.9) scale(0.1) scale(1 -1)">A</text>
<text id="0x5c389eaf5ee0" class="l67t5" text-anchor="middle" dominant-baseline="central" transform="translate(25.3 11.9) scale(0.1) scale(1 -1)">X</text>
<text id="0x5c389eaf5f70" class="l68t5" text-anchor="middle" dominant-baseline="central" transform="translate(2.3 0) scale(0.1) scale(1 -1)">VGND</text>
<text id="0x5c389eb16390" class="l68t5" text-anchor="middle" dominant-baseline="central" transform="translate(2.3 27.2) scale(0.1) scale(1 -1)">VPWR</text>
<text id="0x5c389e86ccb0" class="l64t5" text-anchor="middle" dominant-baseline="central" transform="translate(2.3 27.2) scale(0.1) scale(1 -1)">VPB</text>
<text id="0x5c389e8677f0" class="l64t59" text-anchor="middle" dominant-baseline="central" transform="translate(2.3 0) scale(0.1) scale(1 -1)">VNB</text>
<text id="0x5c389e958c60" class="l83t44" text-anchor="start" dominant-baseline="text-before-edge" transform="translate(0 0) rotate(90) scale(0.1) scale(1 -1)">clkbuf_4</text>
</g>
<g id="sky130_fd_sc_hd__clkbuf_1">
<polygon id="0x5c389e85cbe0" class="l236d0" points="0,0 13.8,0 13.8,27.2 0,27.2"/>
<polygon id="0x5c389e85cc50" class="l68d16" points="10.65,-0.85 12.35,-0.85 12.35,0.85 10.65,0.85"/>
<polygon id="0x5c389f0edfe0" class="l68d16" points="10.65,26.35 12.35,26.35 12.35,28.05 10.65,28.05"/>
<polygon id="0x5c389f0dcfc0" class="l64d16" points="10.65,26.35 12.35,26.35 12.35,28.05 10.65,28.05"/>
<polygon id="0x5c389f0e1db0" class="l122d16" points="10.65,-0.85 12.35,-0.85 12.35,0.85 10.65,0.85"/>
<polygon id="0x5c389f0e1e20" class="l67d20" points="0.85,24.65 3.55,24.65 3.55,15.6 2.55,15.6 2.55,7.6 3.45,7.6 3.45,2.55 0.85,2.55"/>
<polygon id="0x5c389f0f7860" class="l67d20" points="0,0.85 5.25,0.85 5.25,4.65 8.55,4.65 8.55,0.85 13.8,0.85 13.8,-0.85 0,-0.85"/>
<polygon id="0x5c389f0f78d0" class="l67d20" points="4.25,13.9 5.4,13.9 5.4,17.05 10.35,17.05 10.35,24.65 12.05,24.65 12.05,15.35 7.1,15.35 7.1,8.05 12.05,8.05 12.05,2.55 10.35,2.55 10.35,6.35 5.4,6.35 5.4,10.6 4.25,10.6"/>
<polygon id="0x5c389f16ba80" class="l67d20" points="9.45,9.85 12.75,9.85 12.75,13.55 9.45,13.55"/>
<polygon id="0x5c389f1a1f80" class="l67d20" points="0,28.05 13.8,28.05 13.8,26.35 8.55,26.35 8.55,18.75 5.25,18.75 5.25,26.35 0,26.35"/>
<polygon id="0x5c389f22a2a0" class="l95d20" points="0,9.75 13.8,9.75 13.8,14.1 0,14.1"/>
<polygon id="0x5c389f349430" class="l78d44" points="0,12.5 13.8,12.5 13.8,27.2 0,27.2"/>
<polygon id="0x5c389f35fd00" class="l93d44" points="0,-1.9 13.8,-1.9 13.8,10.15 0,10.15"/>
<polygon id="0x5c389f35fd70" class="l64d20" points="-1.9,13.05 15.7,13.05 15.7,29.1 -1.9,29.1"/>
<polygon id="0x5c389f3bdfb0" class="l94d20" points="0,14.2 13.8,14.2 13.8,29.1 0,29.1"/>
<polygon id="0x5c389f49e5e0" class="l81d4" points="0,0 13.8,0 13.8,27.2 0,27.2"/>
<polygon id="0x5c389f4dae90" class="l67d44" points="1.45,-0.85 3.15,-0.85 3.15,0.85 1.45,0.85"/>
<polygon id="0x5c389f4daf00" class="l67d44" points="1.45,26.35 3.15,26.35 3.15,28.05 1.45,28.05"/>
<polygon id="0x5c389f53c1b0" class="l67d44" points="6.05,-0.85 7.75,-0.85 7.75,0.85 6.05,0.85"/>
<polygon id="0x5c389f53c220" class="l67d44" points="6.05,26.35 7.75,26.35 7.75,28.05 6.05,28.05"/>
<polygon id="0x5c389f68fab0" class="l67d44" points="10.65,-0.85 12.35,-0.85 12.35,0.85 10.65,0.85"/>
<polygon id="0x5c389e86f350" class="l67d44" points="10.65,26.35 12.35,26.35 12.35,28.05 10.65,28.05"/>
<polygon id="0x5c389eab6340" class="l67d16" points="1.45,4.25 3.15,4.25 3.15,5.95 1.45,5.95"/>
<polygon id="0x5c389eab63b0" class="l67d16" points="1.45,17.85 3.15,17.85 3.15,19.55 1.45,19.55"/>
<polygon id="0x5c389eac99f0" class="l67d16" points="1.45,21.25 3.15,21.25 3.15,22.95 1.45,22.95"/>
<polygon id="0x5c389eac9ac0" class="l67d16" points="10.65,11.05 12.35,11.05 12.35,12.75 10.65,12.75"/>
<polygon id="0x5c389eaee900" class="l65d20" points="1.35,2.35 12.45,2.35 12.45,7.55 1.35,7.55"/>
<polygon id="0x5c389ec8b970" class="l65d20" points="1.35,16.95 12.45,16.95 12.45,24.85 1.35,24.85"/>
<polygon id="0x5c389ec8ba40" class="l66d44" points="1.75,4.45 3.45,4.45 3.45,6.15 1.75,6.15"/>
<polygon id="0x5c389edd2a70" class="l66d44" points="1.75,18.1 3.45,18.1 3.45,19.8 1.75,19.8"/>
<polygon id="0x5c389ee30a40" class="l66d44" points="1.75,22.15 3.45,22.15 3.45,23.85 1.75,23.85"/>
<polygon id="0x5c389ee30b10" class="l66d44" points="4.25,11.4 5.95,11.4 5.95,13.1 4.25,13.1"/>
<polygon id="0x5c389ee52fe0" class="l66d44" points="6.05,2.95 7.75,2.95 7.75,4.65 6.05,4.65"/>
<polygon id="0x5c389f53fe40" class="l66d44" points="6.05,18.75 7.75,18.75 7.75,20.45 6.05,20.45"/>
<polygon id="0x5c389ef81ce0" class="l66d44" points="6.05,22.15 7.75,22.15 7.75,23.85 6.05,23.85"/>
<polygon id="0x5c389ef81d50" class="l66d44" points="10.25,10.75 11.95,10.75 11.95,12.45 10.25,12.45"/>
<polygon id="0x5c389efe0c30" class="l66d44" points="10.35,3.6 12.05,3.6 12.05,5.3 10.35,5.3"/>
<polygon id="0x5c389efe0d00" class="l66d44" points="10.35,18.75 12.05,18.75 12.05,20.45 10.35,20.45"/>
<polygon id="0x5c389f145710" class="l66d44" points="10.35,22.15 12.05,22.15 12.05,23.85 10.35,23.85"/>
<polygon id="0x5c389ec88910" class="l66d20" points="3.75,13.9 3.95,13.9 3.95,26.15 5.45,26.15 5.45,13.9 6.45,13.9 6.45,10.6 5.45,10.6 5.45,1.05 3.95,1.05 3.95,10.6 3.75,10.6"/>
<polygon id="0x5c389ec88980" class="l66d20" points="12.45,13.25 10.15,13.25 10.15,16.2 9.85,16.2 9.85,26.15 8.35,26.15 8.35,15 8.65,15 8.65,9.5 8.35,9.5 8.35,1.05 9.85,1.05 9.85,8.3 10.15,8.3 10.15,9.95 12.45,9.95"/>
<polygon id="0x5c389f012f00" class="l68d20" points="13.8,-2.4 13.8,2.4 0,2.4 0,-2.4"/>
<polygon id="0x5c389f012f00" class="l68d20" points="13.8,24.8 13.8,29.6 0,29.6 0,24.8"/>
<text id="0x5c389f3c59c0" class="l68t5" text-anchor="middle" dominant-baseline="central" transform="translate(11.5 0) rotate(180) scale(1 -1) scale(0.1) scale(1 -1)">VGND</text>
<text id="0x5c389f3c5a50" class="l68t5" text-anchor="middle" dominant-baseline="central" transform="translate(11.5 27.2) rotate(180) scale(1 -1) scale(0.1) scale(1 -1)">VPWR</text>
<text id="0x5c389f496a10" class="l67t5" text-anchor="middle" dominant-baseline="central" transform="translate(2.3 5.1) rotate(180) scale(1 -1) scale(0.1) scale(1 -1)">X</text>
<text id="0x5c389f496aa0" class="l67t5" text-anchor="middle" dominant-baseline="central" transform="translate(2.3 18.7) rotate(180) scale(1 -1) scale(0.1) scale(1 -1)">X</text>
<text id="0x5c389f4a7d70" class="l67t5" text-anchor="middle" dominant-baseline="central" transform="translate(2.3 22.1) rotate(180) scale(1 -1) scale(0.1) scale(1 -1)">X</text>
<text id="0x5c389f4a7e00" class="l67t5" text-anchor="middle" dominant-baseline="central" transform="translate(11.5 11.9) rotate(180) scale(1 -1) scale(0.1) scale(1 -1)">A</text>
<text id="0x5c389f4d7390" class="l64t5" text-anchor="middle" dominant-baseline="central" transform="translate(11.5 27.2) rotate(180) scale(1 -1) scale(0.1) scale(1 -1)">VPB</text>
<text id="0x5c389f4d7420" class="l64t59" text-anchor="middle" dominant-baseline="central" transform="translate(11.5 0) rotate(180) scale(1 -1) scale(0.1) scale(1 -1)">VNB</text>
<text id="0x5c389f5229c0" class="l83t44" text-anchor="start" dominant-baseline="text-before-edge" transform="translate(0 0) rotate(90) scale(0.1) scale(1 -1)">clkbuf_1</text>
</g>
<g id="sky130_fd_sc_hd__inv_2">
<polygon id="0x5c389eabc560" class="l236d0" points="0,0 13.8,0 13.8,27.2 0,27.2"/>
<polygon id="0x5c389ec07510" class="l64d16" points="1.45,26.35 3.15,26.35 3.15,28.05 1.45,28.05"/>
<polygon id="0x5c389ec075e0" class="l122d16" points="1.45,-0.85 3.15,-0.85 3.15,0.85 1.45,0.85"/>
<polygon id="0x5c389ec6f560" class="l68d16" points="1.45,26.35 3.15,26.35 3.15,28.05 1.45,28.05"/>
<polygon id="0x5c389ec8fdb0" class="l68d16" points="1.45,-0.85 3.15,-0.85 3.15,0.85 1.45,0.85"/>
<polygon id="0x5c389ec8fe80" class="l67d20" points="13.8,28.05 0,28.05 0,26.35 1.25,26.35 1.25,14.95 3.55,14.95 3.55,26.35 10.25,26.35 10.25,14.95 12.35,14.95 12.35,26.35 13.8,26.35"/>
<polygon id="0x5c389ec906b0" class="l67d20" points="8.55,24.65 5.25,24.65 5.25,14.85 6.05,14.85 6.05,8.85 5.25,8.85 5.25,2.55 8.55,2.55"/>
<polygon id="0x5c389ec9b700" class="l67d20" points="1.05,10.75 4.35,10.75 4.35,13.25 1.05,13.25"/>
<polygon id="0x5c389ec9b7d0" class="l67d20" points="13.8,0.85 12.35,0.85 12.35,9.05 10.25,9.05 10.25,0.85 3.55,0.85 3.55,9.05 1.25,9.05 1.25,0.85 0,0.85 0,-0.85 13.8,-0.85"/>
<polygon id="0x5c389f1639f0" class="l66d44" points="10.25,2.95 11.95,2.95 11.95,4.65 10.25,4.65"/>
<polygon id="0x5c389f216940" class="l66d44" points="10.25,6.55 11.95,6.55 11.95,8.25 10.25,8.25"/>
<polygon id="0x5c389f216a10" class="l66d44" points="10.25,15.75 11.95,15.75 11.95,17.45 10.25,17.45"/>
<polygon id="0x5c389f215fb0" class="l66d44" points="10.25,19.15 11.95,19.15 11.95,20.85 10.25,20.85"/>
<polygon id="0x5c389f2307b0" class="l66d44" points="10.25,22.55 11.95,22.55 11.95,24.25 10.25,24.25"/>
<polygon id="0x5c389f230880" class="l66d44" points="6.05,2.95 7.75,2.95 7.75,4.65 6.05,4.65"/>
<polygon id="0x5c389f472d30" class="l66d44" points="6.05,6.55 7.75,6.55 7.75,8.25 6.05,8.25"/>
<polygon id="0x5c389f44d910" class="l66d44" points="6.05,15.75 7.75,15.75 7.75,17.45 6.05,17.45"/>
<polygon id="0x5c389f44d980" class="l66d44" points="6.05,19.15 7.75,19.15 7.75,20.85 6.05,20.85"/>
<polygon id="0x5c389f4ad7b0" class="l66d44" points="6.05,22.55 7.75,22.55 7.75,24.25 6.05,24.25"/>
<polygon id="0x5c389f4ad880" class="l66d44" points="1.85,22.55 3.55,22.55 3.55,24.25 1.85,24.25"/>
<polygon id="0x5c389f4b47c0" class="l66d44" points="1.85,2.95 3.55,2.95 3.55,4.65 1.85,4.65"/>
<polygon id="0x5c389f4e31b0" class="l66d44" points="1.85,6.55 3.55,6.55 3.55,8.25 1.85,8.25"/>
<polygon id="0x5c389f4e3280" class="l66d44" points="1.85,10.75 3.55,10.75 3.55,12.45 1.85,12.45"/>
<polygon id="0x5c389f5a4320" class="l66d44" points="1.85,15.75 3.55,15.75 3.55,17.45 1.85,17.45"/>
<polygon id="0x5c389f5abcc0" class="l66d44" points="1.85,19.15 3.55,19.15 3.55,20.85 1.85,20.85"/>
<polygon id="0x5c389f5abd90" class="l66d20" points="9.75,26.15 8.25,26.15 8.25,13.25 5.55,13.25 5.55,26.15 4.05,26.15 4.05,13.25 1.05,13.25 1.05,9.95 4.05,9.95 4.05,1.05 5.55,1.05 5.55,9.95 8.25,9.95 8.25,1.05 9.75,1.05"/>
<polygon id="0x5c389ee036e0" class="l65d20" points="1.45,2.35 12.35,2.35 12.35,8.85 1.45,8.85"/>
<polygon id="0x5c389ee037b0" class="l65d20" points="1.45,14.85 12.35,14.85 12.35,24.85 1.45,24.85"/>
<polygon id="0x5c389f1047e0" class="l67d16" points="6.05,7.65 7.75,7.65 7.75,9.35 6.05,9.35"/>
<polygon id="0x5c389f181a30" class="l67d16" points="1.45,11.05 3.15,11.05 3.15,12.75 1.45,12.75"/>
<polygon id="0x5c389f181b00" class="l67d16" points="6.05,14.45 7.75,14.45 7.75,16.15 6.05,16.15"/>
<polygon id="0x5c389f1ae500" class="l67d16" points="6.05,11.05 7.75,11.05 7.75,12.75 6.05,12.75"/>
<polygon id="0x5c389f2e6cc0" class="l67d44" points="10.65,-0.85 12.35,-0.85 12.35,0.85 10.65,0.85"/>
<polygon id="0x5c389f2e6d90" class="l67d44" points="1.45,26.35 3.15,26.35 3.15,28.05 1.45,28.05"/>
<polygon id="0x5c389f4a8e10" class="l67d44" points="1.45,-0.85 3.15,-0.85 3.15,0.85 1.45,0.85"/>
<polygon id="0x5c389f2cc360" class="l67d44" points="6.05,26.35 7.75,26.35 7.75,28.05 6.05,28.05"/>
<polygon id="0x5c389f2cc430" class="l67d44" points="6.05,-0.85 7.75,-0.85 7.75,0.85 6.05,0.85"/>
<polygon id="0x5c389f2dc700" class="l67d44" points="10.65,26.35 12.35,26.35 12.35,28.05 10.65,28.05"/>
<polygon id="0x5c389f34b010" class="l81d4" points="0,0 13.8,0 13.8,27.2 0,27.2"/>
<polygon id="0x5c389f34b0e0" class="l94d20" points="0,13.55 13.8,13.55 13.8,29.1 0,29.1"/>
<polygon id="0x5c389f377ce0" class="l64d20" points="-1.9,13.05 15.7,13.05 15.7,29.1 -1.9,29.1"/>
<polygon id="0x5c389f561a10" class="l93d44" points="0,-1.9 13.8,-1.9 13.8,10.15 0,10.15"/>
<polygon id="0x5c389f561ae0" class="l78d44" points="0,12.5 13.8,12.5 13.8,27.2 0,27.2"/>
<polygon id="0x5c389e8a1240" class="l95d20" points="0,9.75 13.8,9.75 13.8,13.45 0,13.45"/>
<polygon id="0x5c389f012f00" class="l68d20" points="0,29.6 0,24.8 13.8,24.8 13.8,29.6"/>
<polygon id="0x5c389f012f00" class="l68d20" points="0,2.4 0,-2.4 13.8,-2.4 13.8,2.4"/>
<text id="0x5c389ee75090" class="l67t5" text-anchor="middle" dominant-baseline="central" transform="translate(2.3 11.9) scale(0.17) scale(1 -1)">A</text>
<text id="0x5c389ee87e90" class="l67t5" text-anchor="middle" dominant-baseline="central" transform="translate(6.9 8.5) scale(0.17) scale(1 -1)">Y</text>
<text id="0x5c389ee87f20" class="l67t5" text-anchor="middle" dominant-baseline="central" transform="translate(6.9 15.3) scale(0.17) scale(1 -1)">Y</text>
<text id="0x5c389ef2b0d0" class="l67t5" text-anchor="middle" dominant-baseline="central" transform="translate(6.9 11.9) scale(0.17) scale(1 -1)">Y</text>
<text id="0x5c389ef2b160" class="l64t5" text-anchor="middle" dominant-baseline="central" transform="translate(2.3 27.2) scale(0.1) scale(1 -1)">VPB</text>
<text id="0x5c389ef7c380" class="l64t59" text-anchor="middle" dominant-baseline="central" transform="translate(2.3 0) scale(0.1) scale(1 -1)">VNB</text>
<text id="0x5c389ef7c410" class="l68t5" text-anchor="middle" dominant-baseline="central" transform="translate(2.3 27.2) scale(0.1) scale(1 -1)">VPWR</text>
<text id="0x5c389f068fb0" class="l68t5" text-anchor="middle" dominant-baseline="central" transform="translate(2.3 0) scale(0.1) scale(1 -1)">VGND</text>
<text id="0x5c389e9c76c0" class="l83t44" text-anchor="start" dominant-baseline="text-before-edge" transform="translate(0 0) rotate(90) scale(0.1) scale(1 -1)">inv_2</text>
</g>
<g id="sky130_fd_sc_hd__fill_1">
<polygon id="0x5c389ef45810" class="l64d16" points="1.55,26.7 2.55,26.7 2.55,27.55 1.55,27.55"/>
<polygon id="0x5c389f0ac310" class="l122d16" points="1.4,-0.55 2.6,-0.55 2.6,0.55 1.4,0.55"/>
<polygon id="0x5c389f119430" class="l68d16" points="1.1,26.35 2.9,26.35 2.9,27.85 1.1,27.85"/>
<polygon id="0x5c389f11d620" class="l68d16" points="1.1,-0.65 2.9,-0.65 2.9,0.8 1.1,0.8"/>
<polygon id="0x5c389f1643f0" class="l81d4" points="0,0 4.6,0 4.6,27.2 0,27.2"/>
<polygon id="0x5c389f1ee5e0" class="l78d44" points="0,12.5 4.6,12.5 4.6,27.2 0,27.2"/>
<polygon id="0x5c389f20b560" class="l93d44" points="0,-1.9 4.6,-1.9 4.6,10.15 0,10.15"/>
<polygon id="0x5c389ea79960" class="l64d20" points="-1.9,13.05 6.5,13.05 6.5,29.1 -1.9,29.1"/>
<polygon id="0x5c389f2382b0" class="l94d20" points="0,13.55 4.6,13.55 4.6,29.1 0,29.1"/>
<polygon id="0x5c389f5907a0" class="l67d44" points="1.45,26.35 3.15,26.35 3.15,28.05 1.45,28.05"/>
<polygon id="0x5c389f59dd50" class="l67d44" points="1.45,-0.85 3.15,-0.85 3.15,0.85 1.45,0.85"/>
<polygon id="0x5c389f012f00" class="l67d20" points="0,0.85 0,-0.85 4.6,-0.85 4.6,0.85"/>
<polygon id="0x5c389f012f00" class="l67d20" points="0,28.05 0,26.35 4.6,26.35 4.6,28.05"/>
<polygon id="0x5c389f012f00" class="l68d20" points="0,29.6 0,24.8 4.6,24.8 4.6,29.6"/>
<polygon id="0x5c389f012f00" class="l68d20" points="0,2.4 0,-2.4 4.6,-2.4 4.6,2.4"/>
<text id="0x5c389f6121c0" class="l68t5" text-anchor="middle" dominant-baseline="central" transform="translate(2.05 27.2) scale(0.125) scale(1 -1)">VPWR</text>
<text id="0x5c389f530ec0" class="l68t5" text-anchor="middle" dominant-baseline="central" transform="translate(2.05 0) scale(0.125) scale(1 -1)">VGND</text>
<text id="0x5c389f7f0250" class="l64t5" text-anchor="middle" dominant-baseline="central" transform="translate(2.3 27.2) scale(0.1) scale(1 -1)">VPB</text>
<text id="0x5c389f2346f0" class="l64t59" text-anchor="middle" dominant-baseline="central" transform="translate(2.3 0) scale(0.1) scale(1 -1)">VNB</text>
<text id="0x5c389f329c30" class="l83t44" text-anchor="start" dominant-baseline="text-before-edge" transform="translate(0 0) rotate(90) scale(0.1) scale(1 -1)">fill_1</text>
</g>
</defs>
<rect x="-28.56" y="-599.76" width="402.12" height="628.32" fill="#222222" stroke="none"/>
<g id="inverter" transform="scale(1 -1)">
<polygon id="0x5c389e8a2120" class="l235d4" points="0,0 345,0 345,571.2 0,571.2"/>
<polygon id="0x5c389ee30680" class="l67d20" points="79.65,337.45 81.35,337.45 81.35,339.15 79.65,339.15"/>
<polygon id="0x5c389ef40ed0" class="l67d20" points="75.05,330.65 76.75,330.65 76.75,332.35 75.05,332.35"/>
<polygon id="0x5c389e80faa0" class="l67d20" points="263.65,320.45 265.35,320.45 265.35,322.15 263.65,322.15"/>
<polygon id="0x5c389ea10730" class="l67d20" points="272.85,313.65 274.55,313.65 274.55,315.35 272.85,315.35"/>
<polygon id="0x5c389ec2f980" class="l67d20" points="254.45,283.05 256.15,283.05 256.15,284.75 254.45,284.75"/>
<polygon id="0x5c389ef49290" class="l67d20" points="268.25,276.25 269.95,276.25 269.95,277.95 268.25,277.95"/>
<polygon id="0x5c389ef49300" class="l67d44" points="79.65,337.45 81.35,337.45 81.35,339.15 79.65,339.15"/>
<polygon id="0x5c389ef49370" class="l67d44" points="75.05,330.65 76.75,330.65 76.75,332.35 75.05,332.35"/>
<polygon id="0x5c389ef493e0" class="l67d44" points="263.65,320.45 265.35,320.45 265.35,322.15 263.65,322.15"/>
<polygon id="0x5c389f058c80" class="l67d44" points="272.85,313.65 274.55,313.65 274.55,315.35 272.85,315.35"/>
<polygon id="0x5c389f058cf0" class="l67d44" points="254.45,283.05 256.15,283.05 256.15,284.75 254.45,284.75"/>
<polygon id="0x5c389f061760" class="l67d44" points="268.25,276.25 269.95,276.25 269.95,277.95 268.25,277.95"/>
<polygon id="0x5c389f061830" class="l68d20" points="55.2,460 289.8,460 289.8,464.8 55.2,464.8"/>
<polygon id="0x5c389efbd2a0" class="l68d20" points="55.2,432.8 289.8,432.8 289.8,437.6 55.2,437.6"/>
<polygon id="0x5c389efbd370" class="l68d20" points="55.2,405.6 289.8,405.6 289.8,410.4 55.2,410.4"/>
<polygon id="0x5c389f09e190" class="l68d20" points="55.2,378.4 289.8,378.4 289.8,383.2 55.2,383.2"/>
<polygon id="0x5c389f1a24f0" class="l68d20" points="55.2,351.2 289.8,351.2 289.8,356 55.2,356"/>
<polygon id="0x5c389f1a25c0" class="l68d20" points="78.9,337 82.1,337 82.1,339.6 78.9,339.6"/>
<polygon id="0x5c389f1adce0" class="l68d20" points="74.3,330.2 77.5,330.2 77.5,332.8 74.3,332.8"/>
<polygon id="0x5c389f1addb0" class="l68d20" points="55.2,324 289.8,324 289.8,328.8 55.2,328.8"/>
<polygon id="0x5c389f1b7a90" class="l68d20" points="78.9,322 82.1,322 82.1,322.6 78.9,322.6"/>
<polygon id="0x5c389f1b7b60" class="l68d20" points="263.05,322 265.95,322 265.95,322.45 263.05,322.45"/>
<polygon id="0x5c389f1dd9c0" class="l68d20" points="78.9,320.6 265.95,320.6 265.95,322 78.9,322"/>
<polygon id="0x5c389f1dda90" class="l68d20" points="78.9,320 82.1,320 82.1,320.6 78.9,320.6"/>
<polygon id="0x5c389f1e70d0" class="l68d20" points="263.05,320.15 265.95,320.15 265.95,320.6 263.05,320.6"/>
<polygon id="0x5c389f1e71a0" class="l68d20" points="272.1,313.2 275.3,313.2 275.3,315.8 272.1,315.8"/>
<polygon id="0x5c389f22a970" class="l68d20" points="55.2,296.8 289.8,296.8 289.8,301.6 55.2,301.6"/>
<polygon id="0x5c389f22aa40" class="l68d20" points="74.3,292.8 77.5,292.8 77.5,295.4 74.3,295.4"/>
<polygon id="0x5c389f28a710" class="l68d20" points="75.2,284.6 76.6,284.6 76.6,292.8 75.2,292.8"/>
<polygon id="0x5c389f28a7e0" class="l68d20" points="253.85,284.6 256.75,284.6 256.75,285.05 253.85,285.05"/>
<polygon id="0x5c389f328b50" class="l68d20" points="75.2,283.2 256.75,283.2 256.75,284.6 75.2,284.6"/>
<polygon id="0x5c389f328c20" class="l68d20" points="253.85,282.75 256.75,282.75 256.75,283.2 253.85,283.2"/>
<polygon id="0x5c389f09e200" class="l68d20" points="267.65,277.8 270.55,277.8 270.55,278.25 267.65,278.25"/>
<polygon id="0x5c389f09e2d0" class="l68d20" points="272.1,277.8 275.3,277.8 275.3,278.4 272.1,278.4"/>
<polygon id="0x5c389f3c9850" class="l68d20" points="267.65,276.4 275.3,276.4 275.3,277.8 267.65,277.8"/>
<polygon id="0x5c389f3c9920" class="l68d20" points="267.65,275.95 270.55,275.95 270.55,276.4 267.65,276.4"/>
<polygon id="0x5c389f3e5df0" class="l68d20" points="272.1,275.8 275.3,275.8 275.3,276.4 272.1,276.4"/>
<polygon id="0x5c389f3e5ec0" class="l68d20" points="55.2,269.6 289.8,269.6 289.8,274.4 55.2,274.4"/>
<polygon id="0x5c389f4a61f0" class="l68d20" points="55.2,242.4 289.8,242.4 289.8,247.2 55.2,247.2"/>
<polygon id="0x5c389f4a62c0" class="l68d20" points="55.2,215.2 289.8,215.2 289.8,220 55.2,220"/>
<polygon id="0x5c389f4ea8c0" class="l68d20" points="55.2,188 289.8,188 289.8,192.8 55.2,192.8"/>
<polygon id="0x5c389f4ea990" class="l68d20" points="55.2,160.8 289.8,160.8 289.8,165.6 55.2,165.6"/>
<polygon id="0x5c389f4fa2e0" class="l68d20" points="55.2,133.6 289.8,133.6 289.8,138.4 55.2,138.4"/>
<polygon id="0x5c389f4fa3b0" class="l68d20" points="55.2,106.4 289.8,106.4 289.8,111.2 55.2,111.2"/>
<polygon id="0x5c389f571640" class="l68d44" points="98.05,461.65 99.55,461.65 99.55,463.15 98.05,463.15"/>
<polygon id="0x5c389f571710" class="l68d44" points="101.25,461.65 102.75,461.65 102.75,463.15 101.25,463.15"/>
<polygon id="0x5c389f5b9a60" class="l68d44" points="104.45,461.65 105.95,461.65 105.95,463.15 104.45,463.15"/>
<polygon id="0x5c389f5b9b30" class="l68d44" points="107.65,461.65 109.15,461.65 109.15,463.15 107.65,463.15"/>
<polygon id="0x5c389ea30940" class="l68d44" points="110.85,461.65 112.35,461.65 112.35,463.15 110.85,463.15"/>
<polygon id="0x5c389ea30a10" class="l68d44" points="131.05,434.45 132.55,434.45 132.55,435.95 131.05,435.95"/>
<polygon id="0x5c389ea9c3b0" class="l68d44" points="134.25,434.45 135.75,434.45 135.75,435.95 134.25,435.95"/>
<polygon id="0x5c389ea9c480" class="l68d44" points="137.45,434.45 138.95,434.45 138.95,435.95 137.45,435.95"/>
<polygon id="0x5c389eb11bd0" class="l68d44" points="140.65,434.45 142.15,434.45 142.15,435.95 140.65,435.95"/>
<polygon id="0x5c389eb11ca0" class="l68d44" points="143.85,434.45 145.35,434.45 145.35,435.95 143.85,435.95"/>
<polygon id="0x5c389eb67900" class="l68d44" points="98.05,407.25 99.55,407.25 99.55,408.75 98.05,408.75"/>
<polygon id="0x5c389eb679d0" class="l68d44" points="101.25,407.25 102.75,407.25 102.75,408.75 101.25,408.75"/>
<polygon id="0x5c389ebdebe0" class="l68d44" points="104.45,407.25 105.95,407.25 105.95,408.75 104.45,408.75"/>
<polygon id="0x5c389ebdecb0" class="l68d44" points="107.65,407.25 109.15,407.25 109.15,408.75 107.65,408.75"/>
<polygon id="0x5c389ec0e020" class="l68d44" points="110.85,407.25 112.35,407.25 112.35,408.75 110.85,408.75"/>
<polygon id="0x5c389ec0e0f0" class="l68d44" points="131.05,380.05 132.55,380.05 132.55,381.55 131.05,381.55"/>
<polygon id="0x5c389ec7ca90" class="l68d44" points="134.25,380.05 135.75,380.05 135.75,381.55 134.25,381.55"/>
<polygon id="0x5c389ec7cb60" class="l68d44" points="137.45,380.05 138.95,380.05 138.95,381.55 137.45,381.55"/>
<polygon id="0x5c389edaf480" class="l68d44" points="140.65,380.05 142.15,380.05 142.15,381.55 140.65,381.55"/>
<polygon id="0x5c389edaf550" class="l68d44" points="143.85,380.05 145.35,380.05 145.35,381.55 143.85,381.55"/>
<polygon id="0x5c389ee6e760" class="l68d44" points="98.05,352.85 99.55,352.85 99.55,354.35 98.05,354.35"/>
<polygon id="0x5c389ee6e830" class="l68d44" points="101.25,352.85 102.75,352.85 102.75,354.35 101.25,354.35"/>
<polygon id="0x5c389ee8a420" class="l68d44" points="104.45,352.85 105.95,352.85 105.95,354.35 104.45,354.35"/>
<polygon id="0x5c389ee8a4f0" class="l68d44" points="107.65,352.85 109.15,352.85 109.15,354.35 107.65,354.35"/>
<polygon id="0x5c389eeb1780" class="l68d44" points="110.85,352.85 112.35,352.85 112.35,354.35 110.85,354.35"/>
<polygon id="0x5c389eeb1850" class="l68d44" points="79.75,337.55 81.25,337.55 81.25,339.05 79.75,339.05"/>
<polygon id="0x5c389ef5f590" class="l68d44" points="75.15,330.75 76.65,330.75 76.65,332.25 75.15,332.25"/>
<polygon id="0x5c389ef5f660" class="l68d44" points="131.05,325.65 132.55,325.65 132.55,327.15 131.05,327.15"/>
<polygon id="0x5c389ef423c0" class="l68d44" points="134.25,325.65 135.75,325.65 135.75,327.15 134.25,327.15"/>
<polygon id="0x5c389ef42490" class="l68d44" points="137.45,325.65 138.95,325.65 138.95,327.15 137.45,327.15"/>
<polygon id="0x5c389f1169f0" class="l68d44" points="140.65,325.65 142.15,325.65 142.15,327.15 140.65,327.15"/>
<polygon id="0x5c389f116ac0" class="l68d44" points="143.85,325.65 145.35,325.65 145.35,327.15 143.85,327.15"/>
<polygon id="0x5c389f13d150" class="l68d44" points="79.75,320.55 81.25,320.55 81.25,322.05 79.75,322.05"/>
<polygon id="0x5c389f13d220" class="l68d44" points="272.95,313.75 274.45,313.75 274.45,315.25 272.95,315.25"/>
<polygon id="0x5c389f2b14c0" class="l68d44" points="98.05,298.45 99.55,298.45 99.55,299.95 98.05,299.95"/>
<polygon id="0x5c389f2b1590" class="l68d44" points="101.25,298.45 102.75,298.45 102.75,299.95 101.25,299.95"/>
<polygon id="0x5c389f2f4f10" class="l68d44" points="104.45,298.45 105.95,298.45 105.95,299.95 104.45,299.95"/>
<polygon id="0x5c389f2f4fe0" class="l68d44" points="107.65,298.45 109.15,298.45 109.15,299.95 107.65,299.95"/>
<polygon id="0x5c389f307030" class="l68d44" points="110.85,298.45 112.35,298.45 112.35,299.95 110.85,299.95"/>
<polygon id="0x5c389f307100" class="l68d44" points="75.15,293.35 76.65,293.35 76.65,294.85 75.15,294.85"/>
<polygon id="0x5c389f324d80" class="l68d44" points="272.95,276.35 274.45,276.35 274.45,277.85 272.95,277.85"/>
<polygon id="0x5c389f324e50" class="l68d44" points="131.05,271.25 132.55,271.25 132.55,272.75 131.05,272.75"/>
<polygon id="0x5c389f3a9340" class="l68d44" points="134.25,271.25 135.75,271.25 135.75,272.75 134.25,272.75"/>
<polygon id="0x5c389f3a9410" class="l68d44" points="137.45,271.25 138.95,271.25 138.95,272.75 137.45,272.75"/>
<polygon id="0x5c389f4ec450" class="l68d44" points="140.65,271.25 142.15,271.25 142.15,272.75 140.65,272.75"/>
<polygon id="0x5c389f4ec520" class="l68d44" points="143.85,271.25 145.35,271.25 145.35,272.75 143.85,272.75"/>
<polygon id="0x5c389f31d3a0" class="l68d44" points="98.05,244.05 99.55,244.05 99.55,245.55 98.05,245.55"/>
<polygon id="0x5c389f31d470" class="l68d44" points="101.25,244.05 102.75,244.05 102.75,245.55 101.25,245.55"/>
<polygon id="0x5c389f5331a0" class="l68d44" points="104.45,244.05 105.95,244.05 105.95,245.55 104.45,245.55"/>
<polygon id="0x5c389f533270" class="l68d44" points="107.65,244.05 109.15,244.05 109.15,245.55 107.65,245.55"/>
<polygon id="0x5c389f57b820" class="l68d44" points="110.85,244.05 112.35,244.05 112.35,245.55 110.85,245.55"/>
<polygon id="0x5c389f57b8f0" class="l68d44" points="131.05,216.85 132.55,216.85 132.55,218.35 131.05,218.35"/>
<polygon id="0x5c389f5c5040" class="l68d44" points="134.25,216.85 135.75,216.85 135.75,218.35 134.25,218.35"/>
<polygon id="0x5c389f5c5110" class="l68d44" points="137.45,216.85 138.95,216.85 138.95,218.35 137.45,218.35"/>
<polygon id="0x5c389e885fd0" class="l68d44" points="140.65,216.85 142.15,216.85 142.15,218.35 140.65,218.35"/>
<polygon id="0x5c389e8860a0" class="l68d44" points="143.85,216.85 145.35,216.85 145.35,218.35 143.85,218.35"/>
<polygon id="0x5c389e94ca10" class="l68d44" points="98.05,189.65 99.55,189.65 99.55,191.15 98.05,191.15"/>
<polygon id="0x5c389e94cae0" class="l68d44" points="101.25,189.65 102.75,189.65 102.75,191.15 101.25,191.15"/>
<polygon id="0x5c389e973970" class="l68d44" points="104.45,189.65 105.95,189.65 105.95,191.15 104.45,191.15"/>
<polygon id="0x5c389e973a40" class="l68d44" points="107.65,189.65 109.15,189.65 109.15,191.15 107.65,191.15"/>
<polygon id="0x5c389e9b28f0" class="l68d44" points="110.85,189.65 112.35,189.65 112.35,191.15 110.85,191.15"/>
<polygon id="0x5c389e9b29c0" class="l68d44" points="131.05,162.45 132.55,162.45 132.55,163.95 131.05,163.95"/>
<polygon id="0x5c389e9fd620" class="l68d44" points="134.25,162.45 135.75,162.45 135.75,163.95 134.25,163.95"/>
<polygon id="0x5c389e9fd6f0" class="l68d44" points="137.45,162.45 138.95,162.45 138.95,163.95 137.45,163.95"/>
<polygon id="0x5c389eb55920" class="l68d44" points="140.65,162.45 142.15,162.45 142.15,163.95 140.65,163.95"/>
<polygon id="0x5c389eb559f0" class="l68d44" points="143.85,162.45 145.35,162.45 145.35,163.95 143.85,163.95"/>
<polygon id="0x5c389eb91e20" class="l68d44" points="98.05,135.25 99.55,135.25 99.55,136.75 98.05,136.75"/>
<polygon id="0x5c389eb91ef0" class="l68d44" points="101.25,135.25 102.75,135.25 102.75,136.75 101.25,136.75"/>
<polygon id="0x5c389ec3d6c0" class="l68d44" points="104.45,135.25 105.95,135.25 105.95,136.75 104.45,136.75"/>
<polygon id="0x5c389ec3d790" class="l68d44" points="107.65,135.25 109.15,135.25 109.15,136.75 107.65,136.75"/>
<polygon id="0x5c389edbf5c0" class="l68d44" points="110.85,135.25 112.35,135.25 112.35,136.75 110.85,136.75"/>
<polygon id="0x5c389edbf690" class="l68d44" points="131.05,108.05 132.55,108.05 132.55,109.55 131.05,109.55"/>
<polygon id="0x5c389eddc5b0" class="l68d44" points="134.25,108.05 135.75,108.05 135.75,109.55 134.25,109.55"/>
<polygon id="0x5c389eddc680" class="l68d44" points="137.45,108.05 138.95,108.05 138.95,109.55 137.45,109.55"/>
<polygon id="0x5c389ee257b0" class="l68d44" points="140.65,108.05 142.15,108.05 142.15,109.55 140.65,109.55"/>
<polygon id="0x5c389ee25880" class="l68d44" points="143.85,108.05 145.35,108.05 145.35,109.55 143.85,109.55"/>
<polygon id="0x5c389ee8b080" class="l69d20" points="97.5,460.55 112.9,460.55 112.9,464.25 97.5,464.25"/>
<polygon id="0x5c389ee8b150" class="l69d20" points="130.5,433.35 145.9,433.35 145.9,437.05 130.5,437.05"/>
<polygon id="0x5c389ee96c30" class="l69d20" points="97.5,406.15 112.9,406.15 112.9,409.85 97.5,409.85"/>
<polygon id="0x5c389ee96d00" class="l69d20" points="130.5,378.95 145.9,378.95 145.9,382.65 130.5,382.65"/>
<polygon id="0x5c389eea4090" class="l69d20" points="97.5,351.75 112.9,351.75 112.9,355.45 97.5,355.45"/>
<polygon id="0x5c389eea4160" class="l69d20" points="79.2,336.7 81.8,336.7 81.8,339.9 79.2,339.9"/>
<polygon id="0x5c389efe0770" class="l69d20" points="74.6,329.9 77.2,329.9 77.2,333.1 74.6,333.1"/>
<polygon id="0x5c389efe0840" class="l69d20" points="75.2,295.7 76.6,295.7 76.6,329.9 75.2,329.9"/>
<polygon id="0x5c389f0d51d0" class="l69d20" points="79.8,322.9 81.2,322.9 81.2,336.7 79.8,336.7"/>
<polygon id="0x5c389f0d52a0" class="l69d20" points="130.5,324.55 145.9,324.55 145.9,328.25 130.5,328.25"/>
<polygon id="0x5c389f0cba40" class="l69d20" points="79.2,319.7 81.8,319.7 81.8,322.9 79.2,322.9"/>
<polygon id="0x5c389f0cbb10" class="l69d20" points="272.4,312.9 275,312.9 275,316.1 272.4,316.1"/>
<polygon id="0x5c389f146080" class="l69d20" points="273,311.25 274.4,311.25 274.4,312.9 273,312.9"/>
<polygon id="0x5c389f146150" class="l69d20" points="272.3,307.55 275.1,307.55 275.1,311.25 272.3,311.25"/>
<polygon id="0x5c389f153ca0" class="l69d20" points="97.5,297.35 112.9,297.35 112.9,301.05 97.5,301.05"/>
<polygon id="0x5c389f153d70" class="l69d20" points="74.6,292.5 77.2,292.5 77.2,295.7 74.6,295.7"/>
<polygon id="0x5c389f3e9b40" class="l69d20" points="272.4,277.25 275,277.25 275,278.7 272.4,278.7"/>
<polygon id="0x5c389f3e9c10" class="l69d20" points="130.5,270.15 145.9,270.15 145.9,273.85 130.5,273.85"/>
<polygon id="0x5c389f417ed0" class="l69d20" points="272.3,273.55 275.1,273.55 275.1,277.25 272.3,277.25"/>
<polygon id="0x5c389f417fa0" class="l69d20" points="97.5,242.95 112.9,242.95 112.9,246.65 97.5,246.65"/>
<polygon id="0x5c389f492af0" class="l69d20" points="130.5,215.75 145.9,215.75 145.9,219.45 130.5,219.45"/>
<polygon id="0x5c389f492bc0" class="l69d20" points="97.5,188.55 112.9,188.55 112.9,192.25 97.5,192.25"/>
<polygon id="0x5c389f4ee2d0" class="l69d20" points="130.5,161.35 145.9,161.35 145.9,165.05 130.5,165.05"/>
<polygon id="0x5c389f4ee3a0" class="l69d20" points="97.5,134.15 112.9,134.15 112.9,137.85 97.5,137.85"/>
<polygon id="0x5c389f5f71e0" class="l69d20" points="130.5,106.95 145.9,106.95 145.9,110.65 130.5,110.65"/>
<polygon id="0x5c389f5f72b0" class="l69d44" points="98.2,461.4 100.2,461.4 100.2,463.4 98.2,463.4"/>
<polygon id="0x5c389f68c150" class="l69d44" points="102.2,461.4 104.2,461.4 104.2,463.4 102.2,463.4"/>
<polygon id="0x5c389f68c220" class="l69d44" points="106.2,461.4 108.2,461.4 108.2,463.4 106.2,463.4"/>
<polygon id="0x5c389e7d9ac0" class="l69d44" points="110.2,461.4 112.2,461.4 112.2,463.4 110.2,463.4"/>
<polygon id="0x5c389e7d9b90" class="l69d44" points="131.2,434.2 133.2,434.2 133.2,436.2 131.2,436.2"/>
<polygon id="0x5c389e8159b0" class="l69d44" points="135.2,434.2 137.2,434.2 137.2,436.2 135.2,436.2"/>
<polygon id="0x5c389e815a80" class="l69d44" points="139.2,434.2 141.2,434.2 141.2,436.2 139.2,436.2"/>
<polygon id="0x5c389e9c4490" class="l69d44" points="143.2,434.2 145.2,434.2 145.2,436.2 143.2,436.2"/>
<polygon id="0x5c389e9c4560" class="l69d44" points="98.2,407 100.2,407 100.2,409 98.2,409"/>
<polygon id="0x5c389ea19420" class="l69d44" points="102.2,407 104.2,407 104.2,409 102.2,409"/>
<polygon id="0x5c389ea194f0" class="l69d44" points="106.2,407 108.2,407 108.2,409 106.2,409"/>
<polygon id="0x5c389ea5b360" class="l69d44" points="110.2,407 112.2,407 112.2,409 110.2,409"/>
<polygon id="0x5c389ea5b430" class="l69d44" points="131.2,379.8 133.2,379.8 133.2,381.8 131.2,381.8"/>
<polygon id="0x5c389eb84650" class="l69d44" points="135.2,379.8 137.2,379.8 137.2,381.8 135.2,381.8"/>
<polygon id="0x5c389eb84720" class="l69d44" points="139.2,379.8 141.2,379.8 141.2,381.8 139.2,381.8"/>
<polygon id="0x5c389ed717e0" class="l69d44" points="143.2,379.8 145.2,379.8 145.2,381.8 143.2,381.8"/>
<polygon id="0x5c389ed718b0" class="l69d44" points="98.2,352.6 100.2,352.6 100.2,354.6 98.2,354.6"/>
<polygon id="0x5c389ecc9090" class="l69d44" points="102.2,352.6 104.2,352.6 104.2,354.6 102.2,354.6"/>
<polygon id="0x5c389ecc9160" class="l69d44" points="106.2,352.6 108.2,352.6 108.2,354.6 106.2,354.6"/>
<polygon id="0x5c389edab450" class="l69d44" points="110.2,352.6 112.2,352.6 112.2,354.6 110.2,354.6"/>
<polygon id="0x5c389edab520" class="l69d44" points="131.2,325.4 133.2,325.4 133.2,327.4 131.2,327.4"/>
<polygon id="0x5c389ee1f0c0" class="l69d44" points="135.2,325.4 137.2,325.4 137.2,327.4 135.2,327.4"/>
<polygon id="0x5c389ee1f190" class="l69d44" points="139.2,325.4 141.2,325.4 141.2,327.4 139.2,327.4"/>
<polygon id="0x5c389ef6e430" class="l69d44" points="143.2,325.4 145.2,325.4 145.2,327.4 143.2,327.4"/>
<polygon id="0x5c389ef6e500" class="l69d44" points="272.7,308.4 274.7,308.4 274.7,310.4 272.7,310.4"/>
<polygon id="0x5c389ef9e370" class="l69d44" points="98.2,298.2 100.2,298.2 100.2,300.2 98.2,300.2"/>
<polygon id="0x5c389ef9e440" class="l69d44" points="102.2,298.2 104.2,298.2 104.2,300.2 102.2,300.2"/>
<polygon id="0x5c389efebe20" class="l69d44" points="106.2,298.2 108.2,298.2 108.2,300.2 106.2,300.2"/>
<polygon id="0x5c389efebef0" class="l69d44" points="110.2,298.2 112.2,298.2 112.2,300.2 110.2,300.2"/>
<polygon id="0x5c389f0e69f0" class="l69d44" points="272.7,274.4 274.7,274.4 274.7,276.4 272.7,276.4"/>
<polygon id="0x5c389f0e6ac0" class="l69d44" points="131.2,271 133.2,271 133.2,273 131.2,273"/>
<polygon id="0x5c389f257550" class="l69d44" points="135.2,271 137.2,271 137.2,273 135.2,273"/>
<polygon id="0x5c389f257620" class="l69d44" points="139.2,271 141.2,271 141.2,273 139.2,273"/>
<polygon id="0x5c389f2909a0" class="l69d44" points="143.2,271 145.2,271 145.2,273 143.2,273"/>
<polygon id="0x5c389f290a70" class="l69d44" points="98.2,243.8 100.2,243.8 100.2,245.8 98.2,245.8"/>
<polygon id="0x5c389f2f5e30" class="l69d44" points="102.2,243.8 104.2,243.8 104.2,245.8 102.2,245.8"/>
<polygon id="0x5c389f2f5f00" class="l69d44" points="106.2,243.8 108.2,243.8 108.2,245.8 106.2,245.8"/>
<polygon id="0x5c389f3253b0" class="l69d44" points="110.2,243.8 112.2,243.8 112.2,245.8 110.2,245.8"/>
<polygon id="0x5c389f325480" class="l69d44" points="131.2,216.6 133.2,216.6 133.2,218.6 131.2,218.6"/>
<polygon id="0x5c389f352250" class="l69d44" points="135.2,216.6 137.2,216.6 137.2,218.6 135.2,218.6"/>
<polygon id="0x5c389f352320" class="l69d44" points="139.2,216.6 141.2,216.6 141.2,218.6 139.2,218.6"/>
<polygon id="0x5c389f425f00" class="l69d44" points="143.2,216.6 145.2,216.6 145.2,218.6 143.2,218.6"/>
<polygon id="0x5c389f425fd0" class="l69d44" points="98.2,189.4 100.2,189.4 100.2,191.4 98.2,191.4"/>
<polygon id="0x5c389f59d470" class="l69d44" points="102.2,189.4 104.2,189.4 104.2,191.4 102.2,191.4"/>
<polygon id="0x5c389f59d540" class="l69d44" points="106.2,189.4 108.2,189.4 108.2,191.4 106.2,191.4"/>
<polygon id="0x5c389f5f2490" class="l69d44" points="110.2,189.4 112.2,189.4 112.2,191.4 110.2,191.4"/>
<polygon id="0x5c389f5f2560" class="l69d44" points="131.2,162.2 133.2,162.2 133.2,164.2 131.2,164.2"/>
<polygon id="0x5c389f690990" class="l69d44" points="135.2,162.2 137.2,162.2 137.2,164.2 135.2,164.2"/>
<polygon id="0x5c389f690a60" class="l69d44" points="139.2,162.2 141.2,162.2 141.2,164.2 139.2,164.2"/>
<polygon id="0x5c389e7da420" class="l69d44" points="143.2,162.2 145.2,162.2 145.2,164.2 143.2,164.2"/>
<polygon id="0x5c389e7da4f0" class="l69d44" points="98.2,135 100.2,135 100.2,137 98.2,137"/>
<polygon id="0x5c389e9225d0" class="l69d44" points="102.2,135 104.2,135 104.2,137 102.2,137"/>
<polygon id="0x5c389e9226a0" class="l69d44" points="106.2,135 108.2,135 108.2,137 106.2,137"/>
<polygon id="0x5c389e93d430" class="l69d44" points="110.2,135 112.2,135 112.2,137 110.2,137"/>
<polygon id="0x5c389e93d4a0" class="l69d44" points="131.2,107.8 133.2,107.8 133.2,109.8 131.2,109.8"/>
<polygon id="0x5c389e93d570" class="l69d44" points="135.2,107.8 137.2,107.8 137.2,109.8 135.2,109.8"/>
<polygon id="0x5c389ec92470" class="l69d44" points="139.2,107.8 141.2,107.8 141.2,109.8 139.2,109.8"/>
<polygon id="0x5c389ec92540" class="l69d44" points="143.2,107.8 145.2,107.8 145.2,109.8 143.2,109.8"/>
<polygon id="0x5c389ed59f50" class="l70d20" points="97.3,460.75 113.1,460.75 113.1,464.05 97.3,464.05"/>
<polygon id="0x5c389ed5a020" class="l70d20" points="130.3,433.55 146.1,433.55 146.1,436.85 130.3,436.85"/>
<polygon id="0x5c389ee087d0" class="l70d20" points="97.3,406.35 113.1,406.35 113.1,409.65 97.3,409.65"/>
<polygon id="0x5c389ee08840" class="l70d20" points="130.3,379.15 146.1,379.15 146.1,382.45 130.3,382.45"/>
<polygon id="0x5c389ee08910" class="l70d20" points="97.3,351.95 113.1,351.95 113.1,355.25 97.3,355.25"/>
<polygon id="0x5c389ee41010" class="l70d20" points="130.3,324.75 146.1,324.75 146.1,328.05 130.3,328.05"/>
<polygon id="0x5c389ee410e0" class="l70d20" points="272.05,310.9 275.35,310.9 275.35,311.05 272.05,311.05"/>
<polygon id="0x5c389eaa32a0" class="l70d20" points="305,310.9 345,310.9 345,312.4 305,312.4"/>
<polygon id="0x5c389eaa3370" class="l70d20" points="272.05,307.9 345,307.9 345,310.9 272.05,310.9"/>
<polygon id="0x5c389f0d3b80" class="l70d20" points="272.05,307.75 275.35,307.75 275.35,307.9 272.05,307.9"/>
<polygon id="0x5c389f0d3bf0" class="l70d20" points="305,306.4 345,306.4 345,307.9 305,307.9"/>
<polygon id="0x5c389f0d3cc0" class="l70d20" points="97.3,297.55 113.1,297.55 113.1,300.85 97.3,300.85"/>
<polygon id="0x5c389f1994e0" class="l70d20" points="272.05,276.9 275.35,276.9 275.35,277.05 272.05,277.05"/>
<polygon id="0x5c389f1995b0" class="l70d20" points="305,276.9 345,276.9 345,278.4 305,278.4"/>
<polygon id="0x5c389f1f23b0" class="l70d20" points="272.05,273.9 345,273.9 345,276.9 272.05,276.9"/>
<polygon id="0x5c389f1f2480" class="l70d20" points="272.05,273.75 275.35,273.75 275.35,273.9 272.05,273.9"/>
<polygon id="0x5c389f1e04d0" class="l70d20" points="130.3,270.35 146.1,270.35 146.1,273.65 130.3,273.65"/>
<polygon id="0x5c389f1e0540" class="l70d20" points="305,272.4 345,272.4 345,273.9 305,273.9"/>
<polygon id="0x5c389f1e0610" class="l70d20" points="97.3,243.15 113.1,243.15 113.1,246.45 97.3,246.45"/>
<polygon id="0x5c389f267c90" class="l70d20" points="130.3,215.95 146.1,215.95 146.1,219.25 130.3,219.25"/>
<polygon id="0x5c389f267d60" class="l70d20" points="97.3,188.75 113.1,188.75 113.1,192.05 97.3,192.05"/>
<polygon id="0x5c389f2d8020" class="l70d20" points="130.3,161.55 146.1,161.55 146.1,164.85 130.3,164.85"/>
<polygon id="0x5c389f2d80f0" class="l70d20" points="97.3,134.35 113.1,134.35 113.1,137.65 97.3,137.65"/>
<polygon id="0x5c389f495970" class="l70d20" points="130.3,107.15 146.1,107.15 146.1,110.45 130.3,110.45"/>
<polygon id="0x5c389f4959e0" class="l70d44" points="98.2,461.4 100.2,461.4 100.2,463.4 98.2,463.4"/>
<polygon id="0x5c389f495ab0" class="l70d44" points="102.2,461.4 104.2,461.4 104.2,463.4 102.2,463.4"/>
<polygon id="0x5c389f5dd070" class="l70d44" points="106.2,461.4 108.2,461.4 108.2,463.4 106.2,463.4"/>
<polygon id="0x5c389f5dd140" class="l70d44" points="110.2,461.4 112.2,461.4 112.2,463.4 110.2,463.4"/>
<polygon id="0x5c389f7f0860" class="l70d44" points="131.2,434.2 133.2,434.2 133.2,436.2 131.2,436.2"/>
<polygon id="0x5c389f7f0930" class="l70d44" points="135.2,434.2 137.2,434.2 137.2,436.2 135.2,436.2"/>
<polygon id="0x5c389f7cfb20" class="l70d44" points="139.2,434.2 141.2,434.2 141.2,436.2 139.2,436.2"/>
<polygon id="0x5c389f7cfb90" class="l70d44" points="143.2,434.2 145.2,434.2 145.2,436.2 143.2,436.2"/>
<polygon id="0x5c389f7cfc60" class="l70d44" points="98.2,407 100.2,407 100.2,409 98.2,409"/>
<polygon id="0x5c389f7cfd30" class="l70d44" points="102.2,407 104.2,407 104.2,409 102.2,409"/>
<polygon id="0x5c389f7cfe00" class="l70d44" points="106.2,407 108.2,407 108.2,409 106.2,409"/>
<polygon id="0x5c389f7cfed0" class="l70d44" points="110.2,407 112.2,407 112.2,409 110.2,409"/>
<polygon id="0x5c389f7cffa0" class="l70d44" points="131.2,379.8 133.2,379.8 133.2,381.8 131.2,381.8"/>
<polygon id="0x5c389f7d0070" class="l70d44" points="135.2,379.8 137.2,379.8 137.2,381.8 135.2,381.8"/>
<polygon id="0x5c389f7d0140" class="l70d44" points="139.2,379.8 141.2,379.8 141.2,381.8 139.2,381.8"/>
<polygon id="0x5c389f7d0210" class="l70d44" points="143.2,379.8 145.2,379.8 145.2,381.8 143.2,381.8"/>
<polygon id="0x5c389f7d02e0" class="l70d44" points="98.2,352.6 100.2,352.6 100.2,354.6 98.2,354.6"/>
<polygon id="0x5c389f7d03b0" class="l70d44" points="102.2,352.6 104.2,352.6 104.2,354.6 102.2,354.6"/>
<polygon id="0x5c389f7d0480" class="l70d44" points="106.2,352.6 108.2,352.6 108.2,354.6 106.2,354.6"/>
<polygon id="0x5c389f7d0550" class="l70d44" points="110.2,352.6 112.2,352.6 112.2,354.6 110.2,354.6"/>
<polygon id="0x5c389f7d0620" class="l70d44" points="131.2,325.4 133.2,325.4 133.2,327.4 131.2,327.4"/>
<polygon id="0x5c389f7d06f0" class="l70d44" points="135.2,325.4 137.2,325.4 137.2,327.4 135.2,327.4"/>
<polygon id="0x5c389f7d07c0" class="l70d44" points="139.2,325.4 141.2,325.4 141.2,327.4 139.2,327.4"/>
<polygon id="0x5c389f7d0890" class="l70d44" points="143.2,325.4 145.2,325.4 145.2,327.4 143.2,327.4"/>
<polygon id="0x5c389f7d0960" class="l70d44" points="98.2,298.2 100.2,298.2 100.2,300.2 98.2,300.2"/>
<polygon id="0x5c389f7d0a30" class="l70d44" points="102.2,298.2 104.2,298.2 104.2,300.2 102.2,300.2"/>
<polygon id="0x5c389f7d0b00" class="l70d44" points="106.2,298.2 108.2,298.2 108.2,300.2 106.2,300.2"/>
<polygon id="0x5c389f7d0bd0" class="l70d44" points="110.2,298.2 112.2,298.2 112.2,300.2 110.2,300.2"/>
<polygon id="0x5c389f7d0ca0" class="l70d44" points="131.2,271 133.2,271 133.2,273 131.2,273"/>
<polygon id="0x5c389f7cf370" class="l70d44" points="135.2,271 137.2,271 137.2,273 135.2,273"/>
<polygon id="0x5c389f7cf440" class="l70d44" points="139.2,271 141.2,271 141.2,273 139.2,273"/>
<polygon id="0x5c389f7cf510" class="l70d44" points="143.2,271 145.2,271 145.2,273 143.2,273"/>
<polygon id="0x5c389f7cf5e0" class="l70d44" points="98.2,243.8 100.2,243.8 100.2,245.8 98.2,245.8"/>
<polygon id="0x5c389f7cf6b0" class="l70d44" points="102.2,243.8 104.2,243.8 104.2,245.8 102.2,245.8"/>
<polygon id="0x5c389f7cf780" class="l70d44" points="106.2,243.8 108.2,243.8 108.2,245.8 106.2,245.8"/>
<polygon id="0x5c389f7cf850" class="l70d44" points="110.2,243.8 112.2,243.8 112.2,245.8 110.2,245.8"/>
<polygon id="0x5c389f7cf920" class="l70d44" points="131.2,216.6 133.2,216.6 133.2,218.6 131.2,218.6"/>
<polygon id="0x5c389f7cf9f0" class="l70d44" points="135.2,216.6 137.2,216.6 137.2,218.6 135.2,218.6"/>
<polygon id="0x5c389f7d1d20" class="l70d44" points="139.2,216.6 141.2,216.6 141.2,218.6 139.2,218.6"/>
<polygon id="0x5c389f7d1d90" class="l70d44" points="143.2,216.6 145.2,216.6 145.2,218.6 143.2,218.6"/>
<polygon id="0x5c389f7d1e60" class="l70d44" points="98.2,189.4 100.2,189.4 100.2,191.4 98.2,191.4"/>
<polygon id="0x5c389f7d1f30" class="l70d44" points="102.2,189.4 104.2,189.4 104.2,191.4 102.2,191.4"/>
<polygon id="0x5c389f7d2000" class="l70d44" points="106.2,189.4 108.2,189.4 108.2,191.4 106.2,191.4"/>
<polygon id="0x5c389f7d20d0" class="l70d44" points="110.2,189.4 112.2,189.4 112.2,191.4 110.2,191.4"/>
<polygon id="0x5c389f7d21a0" class="l70d44" points="131.2,162.2 133.2,162.2 133.2,164.2 131.2,164.2"/>
<polygon id="0x5c389f7d2270" class="l70d44" points="135.2,162.2 137.2,162.2 137.2,164.2 135.2,164.2"/>
<polygon id="0x5c389f7d2340" class="l70d44" points="139.2,162.2 141.2,162.2 141.2,164.2 139.2,164.2"/>
<polygon id="0x5c389f7d2410" class="l70d44" points="143.2,162.2 145.2,162.2 145.2,164.2 143.2,164.2"/>
<polygon id="0x5c389f7d24e0" class="l70d44" points="98.2,135 100.2,135 100.2,137 98.2,137"/>
<polygon id="0x5c389f7d25b0" class="l70d44" points="102.2,135 104.2,135 104.2,137 102.2,137"/>
<polygon id="0x5c389f7d2680" class="l70d44" points="106.2,135 108.2,135 108.2,137 106.2,137"/>
<polygon id="0x5c389f7d2750" class="l70d44" points="110.2,135 112.2,135 112.2,137 110.2,137"/>
<polygon id="0x5c389f7d2820" class="l70d44" points="131.2,107.8 133.2,107.8 133.2,109.8 131.2,109.8"/>
<polygon id="0x5c389f7d28f0" class="l70d44" points="135.2,107.8 137.2,107.8 137.2,109.8 135.2,109.8"/>
<polygon id="0x5c389f7d29c0" class="l70d44" points="139.2,107.8 141.2,107.8 141.2,109.8 139.2,109.8"/>
<polygon id="0x5c389f7d2a90" class="l70d44" points="143.2,107.8 145.2,107.8 145.2,109.8 143.2,109.8"/>
<polygon id="0x5c389f7d2b60" class="l71d20" points="97.2,106.4 113.2,106.4 113.2,464.8 97.2,464.8"/>
<polygon id="0x5c389f7d2c30" class="l71d20" points="130.2,106.4 146.2,106.4 146.2,464.8 130.2,464.8"/>
<polygon id="0x5c389f7d30f0" class="l71d16" points="130.2,106.4 146.2,106.4 146.2,464.8 130.2,464.8"/>
<polygon id="0x5c389f7d3250" class="l71d16" points="97.2,106.4 113.2,106.4 113.2,464.8 97.2,464.8"/>
<polygon id="0x5c389f7d3440" class="l70d16" points="305,306.4 345,306.4 345,312.4 305,312.4"/>
<polygon id="0x5c389f7d35a0" class="l70d16" points="305,272.4 345,272.4 345,278.4 305,278.4"/>
<use transform="translate(69 108.8)" xlink:href="#sky130_ef_sc_hd__decap_12"/>
<use transform="translate(69 163.2) scale(1 -1)" xlink:href="#sky130_ef_sc_hd__decap_12"/>
<use transform="translate(55.2 108.8)" xlink:href="#sky130_fd_sc_hd__decap_3"/>
<use transform="translate(55.2 163.2) scale(1 -1)" xlink:href="#sky130_fd_sc_hd__decap_3"/>
<use transform="translate(124.2 108.8)" xlink:href="#sky130_ef_sc_hd__decap_12"/>
<use transform="translate(124.2 163.2) scale(1 -1)" xlink:href="#sky130_ef_sc_hd__decap_12"/>
<use transform="translate(179.4 108.8)" xlink:href="#sky130_fd_sc_hd__fill_1"/>
<use transform="translate(188.6 108.8)" xlink:href="#sky130_ef_sc_hd__decap_12"/>
<use transform="translate(179.4 163.2) scale(1 -1)" xlink:href="#sky130_ef_sc_hd__decap_12"/>
<use transform="translate(184 108.8)" xlink:href="#sky130_fd_sc_hd__tapvpwrvgnd_1"/>
<use transform="translate(243.8 108.8)" xlink:href="#sky130_fd_sc_hd__decap_6"/>
<use transform="translate(271.4 108.8)" xlink:href="#sky130_fd_sc_hd__fill_1"/>
<use transform="translate(234.6 163.2) scale(1 -1)" xlink:href="#sky130_fd_sc_hd__decap_8"/>
<use transform="translate(271.4 163.2) scale(1 -1)" xlink:href="#sky130_fd_sc_hd__fill_1"/>
<use transform="translate(289.8 108.8) rotate(180) scale(1 -1)" xlink:href="#sky130_fd_sc_hd__decap_3"/>
<use transform="translate(289.8 163.2) rotate(180)" xlink:href="#sky130_fd_sc_hd__decap_3"/>
<use transform="translate(69 163.2)" xlink:href="#sky130_ef_sc_hd__decap_12"/>
<use transform="translate(55.2 163.2)" xlink:href="#sky130_fd_sc_hd__decap_3"/>
<use transform="translate(124.2 163.2)" xlink:href="#sky130_ef_sc_hd__decap_12"/>
<use transform="translate(179.4 163.2)" xlink:href="#sky130_fd_sc_hd__fill_1"/>
<use transform="translate(188.6 163.2)" xlink:href="#sky130_ef_sc_hd__decap_12"/>
<use transform="translate(184 163.2)" xlink:href="#sky130_fd_sc_hd__tapvpwrvgnd_1"/>
<use transform="translate(243.8 163.2)" xlink:href="#sky130_fd_sc_hd__decap_6"/>
<use transform="translate(271.4 163.2)" xlink:href="#sky130_fd_sc_hd__fill_1"/>
<use transform="translate(289.8 163.2) rotate(180) scale(1 -1)" xlink:href="#sky130_fd_sc_hd__decap_3"/>
<use transform="translate(69 217.6) scale(1 -1)" xlink:href="#sky130_ef_sc_hd__decap_12"/>
<use transform="translate(55.2 217.6) scale(1 -1)" xlink:href="#sky130_fd_sc_hd__decap_3"/>
<use transform="translate(124.2 217.6) scale(1 -1)" xlink:href="#sky130_ef_sc_hd__decap_12"/>
<use transform="translate(179.4 217.6) scale(1 -1)" xlink:href="#sky130_ef_sc_hd__decap_12"/>
<use transform="translate(234.6 217.6) scale(1 -1)" xlink:href="#sky130_fd_sc_hd__decap_8"/>
<use transform="translate(271.4 217.6) scale(1 -1)" xlink:href="#sky130_fd_sc_hd__fill_1"/>
<use transform="translate(289.8 217.6) rotate(180)" xlink:href="#sky130_fd_sc_hd__decap_3"/>
<use transform="translate(69 217.6)" xlink:href="#sky130_ef_sc_hd__decap_12"/>
<use transform="translate(55.2 217.6)" xlink:href="#sky130_fd_sc_hd__decap_3"/>
<use transform="translate(124.2 217.6)" xlink:href="#sky130_ef_sc_hd__decap_12"/>
<use transform="translate(179.4 217.6)" xlink:href="#sky130_fd_sc_hd__fill_1"/>
<use transform="translate(188.6 217.6)" xlink:href="#sky130_ef_sc_hd__decap_12"/>
<use transform="translate(184 217.6)" xlink:href="#sky130_fd_sc_hd__tapvpwrvgnd_1"/>
<use transform="translate(243.8 217.6)" xlink:href="#sky130_fd_sc_hd__decap_6"/>
<use transform="translate(271.4 217.6)" xlink:href="#sky130_fd_sc_hd__fill_1"/>
<use transform="translate(289.8 217.6) rotate(180) scale(1 -1)" xlink:href="#sky130_fd_sc_hd__decap_3"/>
<use transform="translate(69 272) scale(1 -1)" xlink:href="#sky130_ef_sc_hd__decap_12"/>
<use transform="translate(55.2 272) scale(1 -1)" xlink:href="#sky130_fd_sc_hd__decap_3"/>
<use transform="translate(124.2 272) scale(1 -1)" xlink:href="#sky130_ef_sc_hd__decap_12"/>
<use transform="translate(179.4 272) scale(1 -1)" xlink:href="#sky130_ef_sc_hd__decap_12"/>
<use transform="translate(234.6 272) scale(1 -1)" xlink:href="#sky130_fd_sc_hd__decap_8"/>
<use transform="translate(271.4 272) scale(1 -1)" xlink:href="#sky130_fd_sc_hd__fill_1"/>
<use transform="translate(289.8 272) rotate(180)" xlink:href="#sky130_fd_sc_hd__decap_3"/>
<use transform="translate(69 272)" xlink:href="#sky130_ef_sc_hd__decap_12"/>
<use transform="translate(69 326.4) scale(1 -1)" xlink:href="#sky130_ef_sc_hd__decap_12"/>
<use transform="translate(55.2 272)" xlink:href="#sky130_fd_sc_hd__decap_3"/>
<use transform="translate(55.2 326.4) scale(1 -1)" xlink:href="#sky130_fd_sc_hd__decap_3"/>
<use transform="translate(124.2 272)" xlink:href="#sky130_ef_sc_hd__decap_12"/>
<use transform="translate(124.2 326.4) scale(1 -1)" xlink:href="#sky130_ef_sc_hd__decap_12"/>
<use transform="translate(179.4 272)" xlink:href="#sky130_fd_sc_hd__fill_1"/>
<use transform="translate(188.6 272)" xlink:href="#sky130_ef_sc_hd__decap_12"/>
<use transform="translate(179.4 326.4) scale(1 -1)" xlink:href="#sky130_ef_sc_hd__decap_12"/>
<use transform="translate(184 272)" xlink:href="#sky130_fd_sc_hd__tapvpwrvgnd_1"/>
<use transform="translate(243.8 272)" xlink:href="#sky130_fd_sc_hd__fill_1"/>
<use transform="translate(234.6 326.4) scale(1 -1)" xlink:href="#sky130_fd_sc_hd__decap_6"/>
<use transform="translate(289.8 272) rotate(180) scale(1 -1)" xlink:href="#sky130_fd_sc_hd__decap_3"/>
<use transform="translate(289.8 326.4) rotate(180)" xlink:href="#sky130_fd_sc_hd__decap_3"/>
<use transform="translate(262.2 326.4) scale(1 -1)" xlink:href="#sky130_fd_sc_hd__clkbuf_1"/>
<use transform="translate(248.4 272)" xlink:href="#sky130_fd_sc_hd__clkbuf_4"/>
<use transform="translate(82.8 326.4)" xlink:href="#sky130_ef_sc_hd__decap_12"/>
<use transform="translate(55.2 326.4)" xlink:href="#sky130_fd_sc_hd__decap_3"/>
<use transform="translate(82.8 326.4) rotate(180) scale(1 -1)" xlink:href="#sky130_fd_sc_hd__inv_2"/>
<use transform="translate(138 326.4)" xlink:href="#sky130_fd_sc_hd__decap_8"/>
<use transform="translate(174.8 326.4)" xlink:href="#sky130_fd_sc_hd__fill_2"/>
<use transform="translate(188.6 326.4)" xlink:href="#sky130_ef_sc_hd__decap_12"/>
<use transform="translate(184 326.4)" xlink:href="#sky130_fd_sc_hd__tapvpwrvgnd_1"/>
<use transform="translate(243.8 326.4)" xlink:href="#sky130_fd_sc_hd__decap_6"/>
<use transform="translate(271.4 326.4)" xlink:href="#sky130_fd_sc_hd__fill_1"/>
<use transform="translate(289.8 326.4) rotate(180) scale(1 -1)" xlink:href="#sky130_fd_sc_hd__decap_3"/>
<use transform="translate(69 380.8) scale(1 -1)" xlink:href="#sky130_ef_sc_hd__decap_12"/>
<use transform="translate(55.2 380.8) scale(1 -1)" xlink:href="#sky130_fd_sc_hd__decap_3"/>
<use transform="translate(124.2 380.8) scale(1 -1)" xlink:href="#sky130_ef_sc_hd__decap_12"/>
<use transform="translate(179.4 380.8) scale(1 -1)" xlink:href="#sky130_ef_sc_hd__decap_12"/>
<use transform="translate(234.6 380.8) scale(1 -1)" xlink:href="#sky130_fd_sc_hd__decap_8"/>
<use transform="translate(271.4 380.8) scale(1 -1)" xlink:href="#sky130_fd_sc_hd__fill_1"/>
<use transform="translate(289.8 380.8) rotate(180)" xlink:href="#sky130_fd_sc_hd__decap_3"/>
<use transform="translate(69 380.8)" xlink:href="#sky130_ef_sc_hd__decap_12"/>
<use transform="translate(55.2 380.8)" xlink:href="#sky130_fd_sc_hd__decap_3"/>
<use transform="translate(124.2 380.8)" xlink:href="#sky130_ef_sc_hd__decap_12"/>
<use transform="translate(179.4 380.8)" xlink:href="#sky130_fd_sc_hd__fill_1"/>
<use transform="translate(188.6 380.8)" xlink:href="#sky130_ef_sc_hd__decap_12"/>
<use transform="translate(184 380.8)" xlink:href="#sky130_fd_sc_hd__tapvpwrvgnd_1"/>
<use transform="translate(243.8 380.8)" xlink:href="#sky130_fd_sc_hd__decap_6"/>
<use transform="translate(271.4 380.8)" xlink:href="#sky130_fd_sc_hd__fill_1"/>
<use transform="translate(289.8 380.8) rotate(180) scale(1 -1)" xlink:href="#sky130_fd_sc_hd__decap_3"/>
<use transform="translate(69 435.2) scale(1 -1)" xlink:href="#sky130_ef_sc_hd__decap_12"/>
<use transform="translate(55.2 435.2) scale(1 -1)" xlink:href="#sky130_fd_sc_hd__decap_3"/>
<use transform="translate(124.2 435.2) scale(1 -1)" xlink:href="#sky130_ef_sc_hd__decap_12"/>
<use transform="translate(179.4 435.2) scale(1 -1)" xlink:href="#sky130_ef_sc_hd__decap_12"/>
<use transform="translate(234.6 435.2) scale(1 -1)" xlink:href="#sky130_fd_sc_hd__decap_8"/>
<use transform="translate(271.4 435.2) scale(1 -1)" xlink:href="#sky130_fd_sc_hd__fill_1"/>
<use transform="translate(289.8 435.2) rotate(180)" xlink:href="#sky130_fd_sc_hd__decap_3"/>
<use transform="translate(69 435.2)" xlink:href="#sky130_ef_sc_hd__decap_12"/>
<use transform="translate(55.2 435.2)" xlink:href="#sky130_fd_sc_hd__decap_3"/>
<use transform="translate(124.2 435.2)" xlink:href="#sky130_ef_sc_hd__decap_12"/>
<use transform="translate(179.4 435.2)" xlink:href="#sky130_fd_sc_hd__fill_1"/>
<use transform="translate(188.6 435.2)" xlink:href="#sky130_ef_sc_hd__decap_12"/>
<use transform="translate(184 435.2)" xlink:href="#sky130_fd_sc_hd__tapvpwrvgnd_1"/>
<use transform="translate(243.8 435.2)" xlink:href="#sky130_fd_sc_hd__decap_6"/>
<use transform="translate(271.4 435.2)" xlink:href="#sky130_fd_sc_hd__fill_1"/>
<use transform="translate(289.8 435.2) rotate(180) scale(1 -1)" xlink:href="#sky130_fd_sc_hd__decap_3"/>
<text id="0x5c389f7d2d00" class="l68t5" text-anchor="start" dominant-baseline="text-before-edge" transform="translate(172.5 435.2) scale(1 -1)">VGND</text>
<text id="0x5c389f7d2d90" class="l68t5" text-anchor="start" dominant-baseline="text-before-edge" transform="translate(172.5 462.4) scale(1 -1)">VPWR</text>
<text id="0x5c389f7d2e20" class="l69t5" text-anchor="start" dominant-baseline="text-before-edge" transform="translate(273.7 311.95) scale(1 -1)">in</text>
<text id="0x5c389f7d2eb0" class="l68t5" text-anchor="start" dominant-baseline="text-before-edge" transform="translate(172.5 321.3) scale(1 -1)">net1</text>
<text id="0x5c389f7d2f40" class="l68t5" text-anchor="start" dominant-baseline="text-before-edge" transform="translate(165.6 283.9) scale(1 -1)">net2</text>
<text id="0x5c389f7d2fd0" class="l68t5" text-anchor="start" dominant-baseline="text-before-edge" transform="translate(271.4 277.1) scale(1 -1)">out</text>
<text id="0x5c389f7d3060" class="l71t5" text-anchor="middle" dominant-baseline="central" transform="translate(138.2 285.6) rotate(90) scale(1.2) scale(1 -1)">VGND</text>
<text id="0x5c389f7d31c0" class="l71t5" text-anchor="middle" dominant-baseline="central" transform="translate(105.2 285.6) rotate(90) scale(1.2) scale(1 -1)">VPWR</text>
<text id="0x5c389f7d3320" class="l70t5" text-anchor="middle" dominant-baseline="central" transform="translate(325 309.4) scale(0.3) scale(1 -1)">in</text>
<text id="0x5c389f7d3510" class="l70t5" text-anchor="middle" dominant-baseline="central" transform="translate(325 275.4) scale(0.3) scale(1 -1)">out</text>
</g>
</svg>